<svg xmlns="http://www.w3.org/2000/svg" xmlns:xlink="http://www.w3.org/1999/xlink" width="500" zoomAndPan="magnify" viewBox="0 0 375 225" height="300" preserveAspectRatio="xMidYMid meet" version="1.0"><defs><g/></defs><g fill="#000000" fill-opacity="1"><g transform="translate(17.021902, 163.500003)"><g><path d="M 7.199219 -72.917969 L -5.433594 -72.917969 L 3.1875 -111.71875 L 39.519531 -111.71875 C 42.964844 -111.71875 46.035156 -111.605469 48.734375 -111.382812 C 51.460938 -111.152344 53.914062 -110.839844 56.105469 -110.4375 C 58.527344 -109.988281 60.691406 -109.339844 62.605469 -108.480469 C 64.433594 -107.660156 66.164062 -106.683594 67.804688 -105.550781 L 67.917969 -105.46875 L 68.027344 -105.386719 C 71.59375 -102.613281 74.347656 -98.933594 76.285156 -94.34375 C 78.148438 -89.9375 79.078125 -84.992188 79.078125 -79.519531 C 79.078125 -73.34375 78.097656 -68.136719 76.136719 -63.898438 C 74.113281 -59.523438 70.710938 -55.636719 65.933594 -52.242188 L 63.039062 -56.320312 L 64.738281 -61.019531 C 70.953125 -58.773438 75.507812 -54.957031 78.402344 -49.566406 C 81.09375 -44.5625 82.4375 -38.066406 82.4375 -30.078125 C 82.4375 -17.796875 78.78125 -8.441406 71.460938 -2.003906 C 69.925781 -0.597656 68.28125 0.578125 66.53125 1.523438 C 64.71875 2.496094 62.566406 3.246094 60.070312 3.773438 C 57.796875 4.25 55.121094 4.578125 52.042969 4.753906 C 49.121094 4.917969 45.535156 5 41.28125 5 L 2.199219 5 L 2.199219 -77.917969 L 7.199219 -77.917969 Z M 12.199219 -82.917969 L 12.199219 0 L 7.199219 0 L 7.199219 -5 L 41.28125 -5 C 45.34375 -5 48.742188 -5.078125 51.476562 -5.230469 C 54.050781 -5.378906 56.230469 -5.636719 58.007812 -6.011719 C 59.566406 -6.339844 60.824219 -6.761719 61.789062 -7.28125 C 62.808594 -7.832031 63.832031 -8.578125 64.855469 -9.515625 C 69.910156 -13.960938 72.4375 -20.8125 72.4375 -30.078125 C 72.4375 -36.386719 71.492188 -41.304688 69.59375 -44.832031 C 67.90625 -47.976562 65.152344 -50.238281 61.339844 -51.617188 L 52.359375 -54.863281 L 60.144531 -60.394531 C 63.472656 -62.761719 65.78125 -65.328125 67.0625 -68.097656 C 68.40625 -71.007812 69.078125 -74.8125 69.078125 -79.519531 C 69.078125 -83.644531 68.410156 -87.289062 67.074219 -90.453125 C 65.8125 -93.4375 64.082031 -95.785156 61.890625 -97.492188 L 64.960938 -101.4375 L 62.113281 -97.328125 C 60.980469 -98.113281 59.78125 -98.789062 58.515625 -99.355469 C 57.332031 -99.886719 55.925781 -100.300781 54.292969 -100.601562 C 52.429688 -100.945312 50.300781 -101.214844 47.902344 -101.414062 C 45.480469 -101.617188 42.6875 -101.71875 39.519531 -101.71875 L 7.199219 -101.71875 L 7.199219 -106.71875 L 12.082031 -105.632812 L 5.679688 -76.835938 L 0.800781 -77.917969 L 0.800781 -82.917969 Z M 36 -68.519531 C 37.664062 -68.519531 38.984375 -68.625 39.964844 -68.84375 C 40.300781 -68.917969 40.558594 -68.992188 40.742188 -69.074219 C 40.769531 -69.089844 40.785156 -69.09375 40.785156 -69.09375 C 40.734375 -69.0625 40.679688 -69.019531 40.621094 -68.964844 C 40.53125 -68.882812 40.476562 -68.820312 40.449219 -68.773438 C 40.503906 -68.871094 40.558594 -69.023438 40.617188 -69.234375 C 40.816406 -69.976562 40.917969 -71.003906 40.917969 -72.320312 C 40.917969 -73.257812 40.832031 -74.007812 40.660156 -74.566406 C 40.582031 -74.816406 40.519531 -74.96875 40.464844 -75.023438 C 40.410156 -75.078125 40.257812 -75.144531 40.007812 -75.21875 C 39.449219 -75.390625 38.699219 -75.480469 37.757812 -75.480469 L 36 -75.480469 L 36 -80.480469 L 41 -80.480469 L 41 -63.519531 L 36 -63.519531 Z M 31 -58.519531 L 31 -85.480469 L 37.757812 -85.480469 C 42.019531 -85.480469 45.277344 -84.351562 47.535156 -82.09375 C 49.792969 -79.839844 50.917969 -76.578125 50.917969 -72.320312 C 50.917969 -67.332031 49.738281 -63.757812 47.378906 -61.59375 C 45.140625 -59.542969 41.347656 -58.519531 36 -58.519531 Z M 36.980469 -31.460938 C 37.191406 -31.421875 37.371094 -31.398438 37.519531 -31.398438 L 38.558594 -31.398438 C 39.550781 -31.398438 40.335938 -31.496094 40.902344 -31.691406 C 41.136719 -31.769531 41.273438 -31.839844 41.324219 -31.894531 C 41.457031 -32.050781 41.585938 -32.378906 41.714844 -32.875 C 41.929688 -33.722656 42.039062 -34.816406 42.039062 -36.160156 C 42.039062 -37.382812 41.921875 -38.347656 41.691406 -39.054688 C 41.589844 -39.359375 41.503906 -39.542969 41.4375 -39.597656 C 41.246094 -39.757812 40.820312 -39.914062 40.152344 -40.066406 C 39.082031 -40.316406 37.699219 -40.4375 36 -40.4375 L 36 -45.4375 L 41 -45.4375 L 41 -26.558594 L 36 -26.558594 Z M 31 -22.460938 L 31 -50.4375 L 36 -50.4375 C 41.367188 -50.4375 45.3125 -49.386719 47.839844 -47.28125 C 50.640625 -44.949219 52.039062 -41.242188 52.039062 -36.160156 C 52.039062 -31.40625 51 -27.816406 48.914062 -25.386719 C 46.636719 -22.726562 43.1875 -21.398438 38.558594 -21.398438 L 37.519531 -21.398438 C 36.710938 -21.398438 35.875 -21.484375 35.019531 -21.65625 Z M 31 -22.460938 "/></g></g></g><g fill="#000000" fill-opacity="1"><g transform="translate(101.659964, 163.500003)"><g><path d="M 7.199219 -72.917969 L -5.433594 -72.917969 L 3.1875 -111.71875 L 29.757812 -111.71875 C 34.402344 -111.71875 38.433594 -111.550781 41.847656 -111.214844 C 45.410156 -110.863281 48.621094 -110.273438 51.480469 -109.4375 C 54.421875 -108.582031 57.132812 -107.4375 59.613281 -106.011719 C 62.050781 -104.609375 64.46875 -102.832031 66.863281 -100.675781 C 79.167969 -89.777344 85.320312 -74.140625 85.320312 -53.757812 C 85.320312 -43.078125 83.59375 -33.515625 80.148438 -25.070312 C 76.613281 -16.414062 71.515625 -9.464844 64.847656 -4.226562 L 61.757812 -8.160156 L 64.960938 -4.320312 C 62.730469 -2.460938 60.390625 -0.933594 57.949219 0.253906 C 55.554688 1.421875 52.910156 2.367188 50.011719 3.089844 C 47.183594 3.796875 43.980469 4.296875 40.402344 4.582031 C 36.960938 4.863281 32.933594 5 28.320312 5 L 2.199219 5 L 2.199219 -77.917969 L 7.199219 -77.917969 Z M 12.199219 -82.917969 L 12.199219 0 L 7.199219 0 L 7.199219 -5 L 28.320312 -5 C 32.664062 -5 36.425781 -5.128906 39.597656 -5.382812 C 42.628906 -5.628906 45.292969 -6.039062 47.585938 -6.609375 C 49.808594 -7.167969 51.800781 -7.875 53.570312 -8.734375 C 55.285156 -9.570312 56.949219 -10.660156 58.558594 -12 L 58.613281 -12.046875 L 58.667969 -12.089844 C 63.949219 -16.238281 68.023438 -21.824219 70.890625 -28.847656 C 73.84375 -36.082031 75.320312 -44.386719 75.320312 -53.757812 C 75.320312 -71.136719 70.269531 -84.300781 60.175781 -93.242188 C 58.304688 -94.925781 56.453125 -96.292969 54.625 -97.34375 C 52.839844 -98.371094 50.855469 -99.203125 48.679688 -99.839844 C 46.417969 -100.496094 43.8125 -100.972656 40.871094 -101.261719 C 37.78125 -101.566406 34.074219 -101.71875 29.757812 -101.71875 L 7.199219 -101.71875 L 7.199219 -106.71875 L 12.082031 -105.632812 L 5.679688 -76.835938 L 0.800781 -77.917969 L 0.800781 -82.917969 Z M 35.761719 -33.792969 C 37.097656 -33.859375 38.25 -34.203125 39.210938 -34.828125 C 40.246094 -35.503906 41.164062 -36.550781 41.960938 -37.972656 C 43.933594 -41.476562 44.917969 -46.632812 44.917969 -53.4375 C 44.917969 -60.554688 44.070312 -65.59375 42.378906 -68.558594 C 41.027344 -70.921875 38.621094 -72.402344 35.160156 -72.988281 L 36 -77.917969 L 41 -77.917969 L 41 -28.800781 L 36 -28.800781 Z M 31 -23.554688 L 31 -83.84375 L 36.839844 -82.847656 C 43.40625 -81.730469 48.144531 -78.621094 51.0625 -73.519531 C 53.632812 -69.019531 54.917969 -62.324219 54.917969 -53.4375 C 54.917969 -44.886719 53.503906 -38.097656 50.675781 -33.066406 C 49.078125 -30.222656 47.074219 -28.015625 44.667969 -26.449219 C 42.191406 -24.835938 39.378906 -23.953125 36.238281 -23.804688 Z M 31 -23.554688 "/></g></g></g><g fill="#000000" fill-opacity="1"><g transform="translate(188.377977, 163.500003)"><g><path d="M 7.199219 -72.917969 L -5.433594 -72.917969 L 3.1875 -111.71875 L 41 -111.71875 L 41 -68.320312 L 36 -68.320312 L 36 -73.320312 L 53.757812 -73.320312 L 53.757812 -68.320312 L 48.757812 -68.320312 L 48.757812 -111.71875 L 87.558594 -111.71875 L 87.558594 5 L 48.757812 5 L 48.757812 -40 L 53.757812 -40 L 53.757812 -35 L 36 -35 L 36 -40 L 41 -40 L 41 5 L 2.199219 5 L 2.199219 -77.917969 L 7.199219 -77.917969 Z M 12.199219 -82.917969 L 12.199219 0 L 7.199219 0 L 7.199219 -5 L 36 -5 L 36 0 L 31 0 L 31 -45 L 58.757812 -45 L 58.757812 0 L 53.757812 0 L 53.757812 -5 L 82.558594 -5 L 82.558594 0 L 77.558594 0 L 77.558594 -106.71875 L 82.558594 -106.71875 L 82.558594 -101.71875 L 53.757812 -101.71875 L 53.757812 -106.71875 L 58.757812 -106.71875 L 58.757812 -63.320312 L 31 -63.320312 L 31 -106.71875 L 36 -106.71875 L 36 -101.71875 L 7.199219 -101.71875 L 7.199219 -106.71875 L 12.082031 -105.632812 L 5.679688 -76.835938 L 0.800781 -77.917969 L 0.800781 -82.917969 Z M 12.199219 -82.917969 "/></g></g></g><g fill="#000000" fill-opacity="1"><g transform="translate(281.655824, 163.500003)"><g><path d="M 14.074219 -39.609375 C 17.648438 -37.101562 21.40625 -35.148438 25.347656 -33.753906 C 29.179688 -32.398438 32.679688 -31.71875 35.839844 -31.71875 C 36.839844 -31.71875 37.582031 -31.90625 38.070312 -32.28125 C 38.15625 -32.347656 38.199219 -32.46875 38.199219 -32.640625 C 38.199219 -32.957031 38.160156 -33.21875 38.078125 -33.421875 L 38.046875 -33.4375 C 37.914062 -33.605469 37.726562 -33.800781 37.476562 -34.023438 C 36.769531 -34.652344 35.730469 -35.363281 34.367188 -36.15625 C 32.828125 -37.050781 30.785156 -38.109375 28.234375 -39.332031 C 23.066406 -41.75 19.035156 -43.867188 16.140625 -45.683594 C 13.140625 -47.566406 10.507812 -49.582031 8.242188 -51.730469 L 11.679688 -55.359375 L 8.367188 -51.613281 C 4.984375 -54.605469 2.425781 -58.347656 0.695312 -62.839844 C -0.96875 -67.152344 -1.800781 -71.75 -1.800781 -76.640625 C -1.800781 -81.851562 -0.941406 -86.667969 0.78125 -91.089844 C 2.515625 -95.554688 4.972656 -99.4375 8.15625 -102.746094 C 11.332031 -106.046875 15.035156 -108.628906 19.261719 -110.492188 C 23.53125 -112.375 28.203125 -113.320312 33.28125 -113.320312 C 35.742188 -113.320312 38.074219 -113.171875 40.269531 -112.875 C 42.398438 -112.585938 45.140625 -112.050781 48.496094 -111.269531 L 47.359375 -106.398438 L 42.5 -107.570312 L 44.792969 -117.078125 L 77.570312 -109.113281 L 67.277344 -67.257812 L 61.144531 -72.296875 C 58.59375 -74.390625 55.769531 -76.007812 52.671875 -77.144531 C 49.605469 -78.273438 46.660156 -78.839844 43.839844 -78.839844 C 42.113281 -78.839844 40.824219 -78.578125 39.972656 -78.054688 C 39.863281 -77.988281 39.785156 -77.929688 39.730469 -77.882812 C 39.738281 -77.886719 39.75 -77.90625 39.773438 -77.941406 C 39.84375 -78.058594 39.878906 -78.160156 39.878906 -78.238281 C 39.878906 -78.171875 39.890625 -78.117188 39.910156 -78.074219 C 39.890625 -78.113281 39.878906 -78.140625 39.867188 -78.15625 C 39.890625 -78.121094 39.925781 -78.078125 39.976562 -78.023438 C 40.152344 -77.828125 40.402344 -77.597656 40.722656 -77.34375 C 41.601562 -76.640625 42.847656 -75.8125 44.453125 -74.867188 C 46.171875 -73.859375 48.363281 -72.6875 51.035156 -71.351562 C 53.777344 -69.925781 56.09375 -68.699219 57.984375 -67.671875 C 59.996094 -66.582031 61.738281 -65.535156 63.210938 -64.535156 C 64.722656 -63.503906 66.039062 -62.492188 67.160156 -61.496094 C 68.332031 -60.453125 69.433594 -59.289062 70.464844 -58.003906 C 75.886719 -51.46875 78.597656 -43.441406 78.597656 -33.917969 C 78.597656 -28.046875 77.597656 -22.625 75.597656 -17.652344 C 73.582031 -12.648438 70.789062 -8.359375 67.214844 -4.785156 C 63.644531 -1.214844 59.390625 1.578125 54.445312 3.589844 C 49.519531 5.597656 44.117188 6.601562 38.238281 6.601562 C 32 6.601562 25.929688 5.730469 20.027344 3.996094 C 14.203125 2.28125 8.179688 -0.382812 1.964844 -4 L -1.273438 -5.882812 L 8.097656 -43.808594 Z M 8.324219 -31.429688 L 11.199219 -35.519531 L 16.054688 -34.320312 L 9.335938 -7.121094 L 4.480469 -8.320312 L 6.996094 -12.640625 C 12.511719 -9.429688 17.796875 -7.082031 22.851562 -5.597656 C 27.828125 -4.132812 32.960938 -3.398438 38.238281 -3.398438 C 42.8125 -3.398438 46.957031 -4.15625 50.671875 -5.671875 C 54.371094 -7.175781 57.527344 -9.238281 60.144531 -11.855469 C 62.753906 -14.46875 64.8125 -17.644531 66.320312 -21.386719 C 67.839844 -25.160156 68.597656 -29.339844 68.597656 -33.917969 C 68.597656 -41.035156 66.617188 -46.980469 62.65625 -51.753906 C 61.976562 -52.601562 61.265625 -53.355469 60.515625 -54.023438 C 59.71875 -54.730469 58.742188 -55.480469 57.585938 -56.265625 C 56.390625 -57.078125 54.933594 -57.949219 53.214844 -58.882812 C 51.375 -59.882812 49.15625 -61.058594 46.5625 -62.40625 C 43.6875 -63.84375 41.296875 -65.125 39.382812 -66.25 C 37.363281 -67.4375 35.730469 -68.53125 34.476562 -69.535156 C 32.835938 -70.84375 31.667969 -72.203125 30.96875 -73.601562 C 30.242188 -75.054688 29.878906 -76.597656 29.878906 -78.238281 C 29.878906 -80.027344 30.328125 -81.65625 31.226562 -83.136719 C 32.058594 -84.503906 33.230469 -85.652344 34.746094 -86.582031 C 37.203125 -88.085938 40.234375 -88.839844 43.839844 -88.839844 C 47.847656 -88.839844 51.941406 -88.070312 56.125 -86.53125 C 60.28125 -85.003906 64.070312 -82.832031 67.492188 -80.023438 L 64.320312 -76.160156 L 59.464844 -77.351562 L 66.664062 -106.632812 L 71.519531 -105.4375 L 70.339844 -100.578125 L 47.296875 -106.179688 L 48.480469 -111.039062 L 53.339844 -109.863281 L 51.054688 -100.402344 L 46.222656 -101.527344 C 43.175781 -102.238281 40.746094 -102.71875 38.929688 -102.964844 C 37.179688 -103.199219 35.296875 -103.316406 33.28125 -103.316406 C 29.609375 -103.316406 26.28125 -102.660156 23.296875 -101.34375 C 20.273438 -100.007812 17.628906 -98.164062 15.363281 -95.8125 C 13.105469 -93.464844 11.351562 -90.683594 10.101562 -87.464844 C 8.832031 -84.210938 8.199219 -80.601562 8.199219 -76.640625 C 8.199219 -72.992188 8.808594 -69.59375 10.023438 -66.4375 C 11.171875 -63.464844 12.828125 -61.019531 14.992188 -59.105469 L 15.058594 -59.046875 L 15.117188 -58.988281 C 16.90625 -57.296875 19.019531 -55.683594 21.457031 -54.15625 C 24.003906 -52.558594 27.707031 -50.621094 32.5625 -48.347656 C 35.347656 -47.011719 37.625 -45.828125 39.390625 -44.804688 C 41.332031 -43.675781 42.910156 -42.574219 44.121094 -41.496094 C 45.667969 -40.121094 46.75 -38.667969 47.363281 -37.136719 C 47.921875 -35.742188 48.199219 -34.242188 48.199219 -32.640625 C 48.199219 -29.183594 46.855469 -26.421875 44.167969 -24.355469 C 41.882812 -22.597656 39.105469 -21.71875 35.839844 -21.71875 C 31.535156 -21.71875 26.925781 -22.589844 22.011719 -24.324219 C 17.207031 -26.023438 12.644531 -28.390625 8.324219 -31.429688 Z M 8.324219 -31.429688 "/></g></g></g><g fill="#fa7200" fill-opacity="1"><g transform="translate(17.021902, 163.500003)"><g><path d="M 7.203125 -77.921875 L 0.796875 -77.921875 L 7.203125 -106.71875 L 39.515625 -106.71875 C 42.828125 -106.71875 45.757812 -106.609375 48.3125 -106.390625 C 50.875 -106.179688 53.164062 -105.890625 55.1875 -105.515625 C 57.21875 -105.140625 59.003906 -104.601562 60.546875 -103.90625 C 62.097656 -103.21875 63.566406 -102.394531 64.953125 -101.4375 C 67.835938 -99.195312 70.078125 -96.179688 71.671875 -92.390625 C 73.273438 -88.609375 74.078125 -84.316406 74.078125 -79.515625 C 74.078125 -74.078125 73.25 -69.570312 71.59375 -66 C 69.945312 -62.425781 67.097656 -59.195312 63.046875 -56.3125 C 68.054688 -54.5 71.707031 -51.457031 74 -47.1875 C 76.289062 -42.925781 77.4375 -37.222656 77.4375 -30.078125 C 77.4375 -19.304688 74.34375 -11.203125 68.15625 -5.765625 C 66.875 -4.585938 65.539062 -3.625 64.15625 -2.875 C 62.769531 -2.132812 61.0625 -1.550781 59.03125 -1.125 C 57.007812 -0.695312 54.582031 -0.398438 51.75 -0.234375 C 48.925781 -0.078125 45.4375 0 41.28125 0 L 7.203125 0 Z M 36 -63.515625 C 40.050781 -63.515625 42.71875 -64.101562 44 -65.28125 C 45.28125 -66.457031 45.921875 -68.800781 45.921875 -72.3125 C 45.921875 -75.195312 45.28125 -77.28125 44 -78.5625 C 42.71875 -79.84375 40.640625 -80.484375 37.765625 -80.484375 L 36 -80.484375 Z M 36 -26.5625 C 36.53125 -26.457031 37.035156 -26.40625 37.515625 -26.40625 C 37.992188 -26.40625 38.34375 -26.40625 38.5625 -26.40625 C 41.65625 -26.40625 43.84375 -27.148438 45.125 -28.640625 C 46.40625 -30.128906 47.046875 -32.632812 47.046875 -36.15625 C 47.046875 -39.675781 46.242188 -42.101562 44.640625 -43.4375 C 43.035156 -44.769531 40.15625 -45.4375 36 -45.4375 Z M 36 -26.5625 "/></g></g></g><g fill="#fa7200" fill-opacity="1"><g transform="translate(101.659964, 163.500003)"><g><path d="M 7.203125 -77.921875 L 0.796875 -77.921875 L 7.203125 -106.71875 L 29.765625 -106.71875 C 34.242188 -106.71875 38.109375 -106.554688 41.359375 -106.234375 C 44.609375 -105.921875 47.515625 -105.390625 50.078125 -104.640625 C 52.640625 -103.890625 54.984375 -102.898438 57.109375 -101.671875 C 59.242188 -100.453125 61.378906 -98.878906 63.515625 -96.953125 C 74.710938 -87.035156 80.3125 -72.640625 80.3125 -53.765625 C 80.3125 -43.734375 78.710938 -34.796875 75.515625 -26.953125 C 72.316406 -19.117188 67.734375 -12.851562 61.765625 -8.15625 C 59.835938 -6.5625 57.832031 -5.253906 55.75 -4.234375 C 53.675781 -3.222656 51.359375 -2.394531 48.796875 -1.75 C 46.234375 -1.113281 43.300781 -0.660156 40 -0.390625 C 36.695312 -0.128906 32.800781 0 28.3125 0 L 7.203125 0 Z M 36 -28.796875 C 40.476562 -29.015625 43.914062 -31.253906 46.3125 -35.515625 C 48.71875 -39.785156 49.921875 -45.757812 49.921875 -53.4375 C 49.921875 -61.4375 48.851562 -67.300781 46.71875 -71.03125 C 44.582031 -74.769531 41.007812 -77.066406 36 -77.921875 Z M 36 -28.796875 "/></g></g></g><g fill="#fa7200" fill-opacity="1"><g transform="translate(188.377977, 163.500003)"><g><path d="M 7.203125 -77.921875 L 0.796875 -77.921875 L 7.203125 -106.71875 L 36 -106.71875 L 36 -68.3125 L 53.765625 -68.3125 L 53.765625 -106.71875 L 82.5625 -106.71875 L 82.5625 0 L 53.765625 0 L 53.765625 -40 L 36 -40 L 36 0 L 7.203125 0 Z M 7.203125 -77.921875 "/></g></g></g><g fill="#fa7200" fill-opacity="1"><g transform="translate(281.655824, 163.500003)"><g><path d="M 11.203125 -35.515625 C 15.148438 -32.742188 19.304688 -30.582031 23.671875 -29.03125 C 28.046875 -27.488281 32.101562 -26.71875 35.84375 -26.71875 C 37.976562 -26.71875 39.738281 -27.25 41.125 -28.3125 C 42.507812 -29.382812 43.203125 -30.828125 43.203125 -32.640625 C 43.203125 -33.597656 43.039062 -34.476562 42.71875 -35.28125 C 42.394531 -36.082031 41.753906 -36.910156 40.796875 -37.765625 C 39.835938 -38.617188 38.53125 -39.523438 36.875 -40.484375 C 35.226562 -41.441406 33.070312 -42.5625 30.40625 -43.84375 C 25.382812 -46.1875 21.515625 -48.210938 18.796875 -49.921875 C 16.078125 -51.628906 13.707031 -53.441406 11.6875 -55.359375 C 8.90625 -57.816406 6.796875 -60.910156 5.359375 -64.640625 C 3.921875 -68.367188 3.203125 -72.367188 3.203125 -76.640625 C 3.203125 -81.222656 3.945312 -85.4375 5.4375 -89.28125 C 6.9375 -93.125 9.046875 -96.457031 11.765625 -99.28125 C 14.484375 -102.101562 17.65625 -104.3125 21.28125 -105.90625 C 24.90625 -107.507812 28.90625 -108.3125 33.28125 -108.3125 C 35.519531 -108.3125 37.625 -108.175781 39.59375 -107.90625 C 41.570312 -107.644531 44.160156 -107.144531 47.359375 -106.40625 L 48.484375 -111.046875 L 71.515625 -105.4375 L 64.3125 -76.15625 C 61.332031 -78.613281 58.023438 -80.507812 54.390625 -81.84375 C 50.765625 -83.175781 47.25 -83.84375 43.84375 -83.84375 C 41.175781 -83.84375 39.015625 -83.332031 37.359375 -82.3125 C 35.703125 -81.300781 34.875 -79.941406 34.875 -78.234375 C 34.875 -77.378906 35.0625 -76.578125 35.4375 -75.828125 C 35.8125 -75.085938 36.53125 -74.289062 37.59375 -73.4375 C 38.664062 -72.582031 40.109375 -71.617188 41.921875 -70.546875 C 43.734375 -69.484375 46.023438 -68.257812 48.796875 -66.875 C 51.460938 -65.488281 53.726562 -64.289062 55.59375 -63.28125 C 57.46875 -62.269531 59.070312 -61.3125 60.40625 -60.40625 C 61.738281 -59.5 62.882812 -58.617188 63.84375 -57.765625 C 64.800781 -56.910156 65.707031 -55.945312 66.5625 -54.875 C 71.25 -49.226562 73.59375 -42.242188 73.59375 -33.921875 C 73.59375 -28.691406 72.710938 -23.890625 70.953125 -19.515625 C 69.191406 -15.140625 66.765625 -11.40625 63.671875 -8.3125 C 60.585938 -5.226562 56.882812 -2.804688 52.5625 -1.046875 C 48.238281 0.710938 43.460938 1.59375 38.234375 1.59375 C 32.472656 1.59375 26.875 0.796875 21.4375 -0.796875 C 16 -2.398438 10.347656 -4.90625 4.484375 -8.3125 Z M 11.203125 -35.515625 "/></g></g></g></svg>