<svg xmlns="http://www.w3.org/2000/svg" xmlns:xlink="http://www.w3.org/1999/xlink" width="500" zoomAndPan="magnify" viewBox="0 0 375 225" height="300" preserveAspectRatio="xMidYMid meet" version="1.0"><defs><g/></defs><g fill="#000000" fill-opacity="1"><g transform="translate(26.537526, 163.500003)"><g><path d="M 8.683594 -33.582031 C 9.804688 -32.542969 10.75 -31.839844 11.515625 -31.46875 C 12.0625 -31.210938 12.703125 -31.078125 13.441406 -31.078125 C 13.769531 -31.078125 13.96875 -31.101562 14.039062 -31.148438 L 14.039062 -31.15625 C 14.101562 -31.238281 14.167969 -31.367188 14.238281 -31.535156 C 14.957031 -33.339844 15.320312 -37.226562 15.320312 -43.199219 L 15.320312 -77.917969 L 20.320312 -77.917969 L 20.320312 -72.917969 L -6.460938 -72.917969 L 2.59375 -111.71875 L 54.121094 -111.71875 L 54.121094 -45.277344 C 54.121094 -40.449219 54.09375 -36.601562 54.039062 -33.746094 C 53.984375 -30.8125 53.871094 -28.332031 53.703125 -26.304688 C 53.515625 -24.085938 53.199219 -22.136719 52.746094 -20.460938 C 52.339844 -18.949219 51.796875 -17.230469 51.113281 -15.296875 C 48.726562 -8.507812 44.652344 -3.152344 38.894531 0.773438 C 33.191406 4.65625 26.628906 6.601562 19.199219 6.601562 C 11.5 6.601562 4.230469 4.679688 -2.609375 0.839844 L -5.792969 -0.949219 L 2.175781 -39.625 Z M 1.878906 -26.253906 L 5.28125 -29.917969 L 10.175781 -28.910156 L 4.738281 -2.511719 L -0.160156 -3.519531 L 2.289062 -7.878906 C 7.609375 -4.894531 13.246094 -3.398438 19.199219 -3.398438 C 24.570312 -3.398438 29.261719 -4.765625 33.265625 -7.492188 C 37.214844 -10.183594 40.019531 -13.894531 41.683594 -18.625 C 42.28125 -20.316406 42.75 -21.796875 43.089844 -23.058594 C 43.386719 -24.15625 43.601562 -25.515625 43.738281 -27.136719 C 43.886719 -28.949219 43.988281 -31.214844 44.039062 -33.933594 C 44.09375 -36.730469 44.121094 -40.511719 44.121094 -45.277344 L 44.121094 -106.71875 L 49.121094 -106.71875 L 49.121094 -101.71875 L 6.558594 -101.71875 L 6.558594 -106.71875 L 11.429688 -105.582031 L 4.710938 -76.78125 L -0.160156 -77.917969 L -0.160156 -82.917969 L 25.320312 -82.917969 L 25.320312 -43.199219 C 25.320312 -35.945312 24.71875 -30.820312 23.523438 -27.824219 C 22.65625 -25.65625 21.335938 -23.984375 19.558594 -22.808594 C 17.816406 -21.65625 15.777344 -21.078125 13.441406 -21.078125 C 11.191406 -21.078125 9.109375 -21.535156 7.203125 -22.449219 C 5.519531 -23.253906 3.742188 -24.523438 1.878906 -26.253906 Z M 1.878906 -26.253906 "/></g></g></g><g fill="#000000" fill-opacity="1"><g transform="translate(85.576208, 163.500003)"><g><path d="M 7.199219 -72.917969 L -5.433594 -72.917969 L 3.1875 -111.71875 L 41 -111.71875 L 41 -68.320312 L 36 -68.320312 L 36 -73.320312 L 53.757812 -73.320312 L 53.757812 -68.320312 L 48.757812 -68.320312 L 48.757812 -111.71875 L 87.558594 -111.71875 L 87.558594 5 L 48.757812 5 L 48.757812 -40 L 53.757812 -40 L 53.757812 -35 L 36 -35 L 36 -40 L 41 -40 L 41 5 L 2.199219 5 L 2.199219 -77.917969 L 7.199219 -77.917969 Z M 12.199219 -82.917969 L 12.199219 0 L 7.199219 0 L 7.199219 -5 L 36 -5 L 36 0 L 31 0 L 31 -45 L 58.757812 -45 L 58.757812 0 L 53.757812 0 L 53.757812 -5 L 82.558594 -5 L 82.558594 0 L 77.558594 0 L 77.558594 -106.71875 L 82.558594 -106.71875 L 82.558594 -101.71875 L 53.757812 -101.71875 L 53.757812 -106.71875 L 58.757812 -106.71875 L 58.757812 -63.320312 L 31 -63.320312 L 31 -106.71875 L 36 -106.71875 L 36 -101.71875 L 7.199219 -101.71875 L 7.199219 -106.71875 L 12.082031 -105.632812 L 5.679688 -76.835938 L 0.800781 -77.917969 L 0.800781 -82.917969 Z M 12.199219 -82.917969 "/></g></g></g><g fill="#000000" fill-opacity="1"><g transform="translate(178.854055, 163.500003)"><g><path d="M 7.199219 -72.917969 L -5.433594 -72.917969 L 3.1875 -111.71875 L 41 -111.71875 L 41 -68.320312 L 36 -68.320312 L 36 -73.320312 L 53.757812 -73.320312 L 53.757812 -68.320312 L 48.757812 -68.320312 L 48.757812 -111.71875 L 87.558594 -111.71875 L 87.558594 5 L 48.757812 5 L 48.757812 -40 L 53.757812 -40 L 53.757812 -35 L 36 -35 L 36 -40 L 41 -40 L 41 5 L 2.199219 5 L 2.199219 -77.917969 L 7.199219 -77.917969 Z M 12.199219 -82.917969 L 12.199219 0 L 7.199219 0 L 7.199219 -5 L 36 -5 L 36 0 L 31 0 L 31 -45 L 58.757812 -45 L 58.757812 0 L 53.757812 0 L 53.757812 -5 L 82.558594 -5 L 82.558594 0 L 77.558594 0 L 77.558594 -106.71875 L 82.558594 -106.71875 L 82.558594 -101.71875 L 53.757812 -101.71875 L 53.757812 -106.71875 L 58.757812 -106.71875 L 58.757812 -63.320312 L 31 -63.320312 L 31 -106.71875 L 36 -106.71875 L 36 -101.71875 L 7.199219 -101.71875 L 7.199219 -106.71875 L 12.082031 -105.632812 L 5.679688 -76.835938 L 0.800781 -77.917969 L 0.800781 -82.917969 Z M 12.199219 -82.917969 "/></g></g></g><g fill="#000000" fill-opacity="1"><g transform="translate(272.131891, 163.500003)"><g><path d="M 14.074219 -39.609375 C 17.648438 -37.101562 21.40625 -35.148438 25.347656 -33.753906 C 29.179688 -32.398438 32.679688 -31.71875 35.839844 -31.71875 C 36.839844 -31.71875 37.582031 -31.90625 38.070312 -32.28125 C 38.15625 -32.347656 38.199219 -32.46875 38.199219 -32.640625 C 38.199219 -32.957031 38.160156 -33.21875 38.078125 -33.421875 L 38.046875 -33.4375 C 37.914062 -33.605469 37.726562 -33.800781 37.476562 -34.023438 C 36.769531 -34.652344 35.730469 -35.363281 34.367188 -36.15625 C 32.828125 -37.050781 30.785156 -38.109375 28.234375 -39.332031 C 23.066406 -41.75 19.035156 -43.867188 16.140625 -45.683594 C 13.140625 -47.566406 10.507812 -49.582031 8.242188 -51.730469 L 11.679688 -55.359375 L 8.367188 -51.613281 C 4.984375 -54.605469 2.425781 -58.347656 0.695312 -62.839844 C -0.96875 -67.152344 -1.800781 -71.75 -1.800781 -76.640625 C -1.800781 -81.851562 -0.941406 -86.667969 0.78125 -91.089844 C 2.515625 -95.554688 4.972656 -99.4375 8.15625 -102.746094 C 11.332031 -106.046875 15.035156 -108.628906 19.261719 -110.492188 C 23.53125 -112.375 28.203125 -113.320312 33.28125 -113.320312 C 35.742188 -113.320312 38.074219 -113.171875 40.269531 -112.875 C 42.398438 -112.585938 45.140625 -112.050781 48.496094 -111.269531 L 47.359375 -106.398438 L 42.5 -107.570312 L 44.792969 -117.078125 L 77.570312 -109.113281 L 67.277344 -67.257812 L 61.144531 -72.296875 C 58.59375 -74.390625 55.769531 -76.007812 52.671875 -77.144531 C 49.605469 -78.273438 46.660156 -78.839844 43.839844 -78.839844 C 42.113281 -78.839844 40.824219 -78.578125 39.972656 -78.054688 C 39.863281 -77.988281 39.785156 -77.929688 39.730469 -77.882812 C 39.738281 -77.886719 39.75 -77.90625 39.773438 -77.941406 C 39.84375 -78.058594 39.878906 -78.160156 39.878906 -78.238281 C 39.878906 -78.171875 39.890625 -78.117188 39.910156 -78.074219 C 39.890625 -78.113281 39.878906 -78.140625 39.867188 -78.15625 C 39.890625 -78.121094 39.925781 -78.078125 39.976562 -78.023438 C 40.152344 -77.828125 40.402344 -77.597656 40.722656 -77.34375 C 41.601562 -76.640625 42.847656 -75.8125 44.453125 -74.867188 C 46.171875 -73.859375 48.363281 -72.6875 51.035156 -71.351562 C 53.777344 -69.925781 56.09375 -68.699219 57.984375 -67.671875 C 59.996094 -66.582031 61.738281 -65.535156 63.210938 -64.535156 C 64.722656 -63.503906 66.039062 -62.492188 67.160156 -61.496094 C 68.332031 -60.453125 69.433594 -59.289062 70.464844 -58.003906 C 75.886719 -51.46875 78.597656 -43.441406 78.597656 -33.917969 C 78.597656 -28.046875 77.597656 -22.625 75.597656 -17.652344 C 73.582031 -12.648438 70.789062 -8.359375 67.214844 -4.785156 C 63.644531 -1.214844 59.390625 1.578125 54.445312 3.589844 C 49.519531 5.597656 44.117188 6.601562 38.238281 6.601562 C 32 6.601562 25.929688 5.730469 20.027344 3.996094 C 14.203125 2.28125 8.179688 -0.382812 1.964844 -4 L -1.273438 -5.882812 L 8.097656 -43.808594 Z M 8.324219 -31.429688 L 11.199219 -35.519531 L 16.054688 -34.320312 L 9.335938 -7.121094 L 4.480469 -8.320312 L 6.996094 -12.640625 C 12.511719 -9.429688 17.796875 -7.082031 22.851562 -5.597656 C 27.828125 -4.132812 32.960938 -3.398438 38.238281 -3.398438 C 42.8125 -3.398438 46.957031 -4.15625 50.671875 -5.671875 C 54.371094 -7.175781 57.527344 -9.238281 60.144531 -11.855469 C 62.753906 -14.46875 64.8125 -17.644531 66.320312 -21.386719 C 67.839844 -25.160156 68.597656 -29.339844 68.597656 -33.917969 C 68.597656 -41.035156 66.617188 -46.980469 62.65625 -51.753906 C 61.976562 -52.601562 61.265625 -53.355469 60.515625 -54.023438 C 59.71875 -54.730469 58.742188 -55.480469 57.585938 -56.265625 C 56.390625 -57.078125 54.933594 -57.949219 53.214844 -58.882812 C 51.375 -59.882812 49.15625 -61.058594 46.5625 -62.40625 C 43.6875 -63.84375 41.296875 -65.125 39.382812 -66.25 C 37.363281 -67.4375 35.730469 -68.53125 34.476562 -69.535156 C 32.835938 -70.84375 31.667969 -72.203125 30.96875 -73.601562 C 30.242188 -75.054688 29.878906 -76.597656 29.878906 -78.238281 C 29.878906 -80.027344 30.328125 -81.65625 31.226562 -83.136719 C 32.058594 -84.503906 33.230469 -85.652344 34.746094 -86.582031 C 37.203125 -88.085938 40.234375 -88.839844 43.839844 -88.839844 C 47.847656 -88.839844 51.941406 -88.070312 56.125 -86.53125 C 60.28125 -85.003906 64.070312 -82.832031 67.492188 -80.023438 L 64.320312 -76.160156 L 59.464844 -77.351562 L 66.664062 -106.632812 L 71.519531 -105.4375 L 70.339844 -100.578125 L 47.296875 -106.179688 L 48.480469 -111.039062 L 53.339844 -109.863281 L 51.054688 -100.402344 L 46.222656 -101.527344 C 43.175781 -102.238281 40.746094 -102.71875 38.929688 -102.964844 C 37.179688 -103.199219 35.296875 -103.316406 33.28125 -103.316406 C 29.609375 -103.316406 26.28125 -102.660156 23.296875 -101.34375 C 20.273438 -100.007812 17.628906 -98.164062 15.363281 -95.8125 C 13.105469 -93.464844 11.351562 -90.683594 10.101562 -87.464844 C 8.832031 -84.210938 8.199219 -80.601562 8.199219 -76.640625 C 8.199219 -72.992188 8.808594 -69.59375 10.023438 -66.4375 C 11.171875 -63.464844 12.828125 -61.019531 14.992188 -59.105469 L 15.058594 -59.046875 L 15.117188 -58.988281 C 16.90625 -57.296875 19.019531 -55.683594 21.457031 -54.15625 C 24.003906 -52.558594 27.707031 -50.621094 32.5625 -48.347656 C 35.347656 -47.011719 37.625 -45.828125 39.390625 -44.804688 C 41.332031 -43.675781 42.910156 -42.574219 44.121094 -41.496094 C 45.667969 -40.121094 46.75 -38.667969 47.363281 -37.136719 C 47.921875 -35.742188 48.199219 -34.242188 48.199219 -32.640625 C 48.199219 -29.183594 46.855469 -26.421875 44.167969 -24.355469 C 41.882812 -22.597656 39.105469 -21.71875 35.839844 -21.71875 C 31.535156 -21.71875 26.925781 -22.589844 22.011719 -24.324219 C 17.207031 -26.023438 12.644531 -28.390625 8.324219 -31.429688 Z M 8.324219 -31.429688 "/></g></g></g><g fill="#7c0000" fill-opacity="1"><g transform="translate(26.537526, 163.500003)"><g><path d="M 5.28125 -29.921875 C 6.769531 -28.535156 8.128906 -27.546875 9.359375 -26.953125 C 10.585938 -26.367188 11.945312 -26.078125 13.4375 -26.078125 C 16.101562 -26.078125 17.914062 -27.273438 18.875 -29.671875 C 19.832031 -32.078125 20.3125 -36.585938 20.3125 -43.203125 L 20.3125 -77.921875 L -0.15625 -77.921875 L 6.5625 -106.71875 L 49.125 -106.71875 L 49.125 -45.28125 C 49.125 -40.476562 49.09375 -36.660156 49.03125 -33.828125 C 48.976562 -31.003906 48.875 -28.632812 48.71875 -26.71875 C 48.5625 -24.800781 48.296875 -23.148438 47.921875 -21.765625 C 47.546875 -20.378906 47.039062 -18.773438 46.40625 -16.953125 C 44.375 -11.191406 40.929688 -6.660156 36.078125 -3.359375 C 31.222656 -0.0546875 25.597656 1.59375 19.203125 1.59375 C 12.367188 1.59375 5.914062 -0.109375 -0.15625 -3.515625 Z M 5.28125 -29.921875 "/></g></g></g><g fill="#7c0000" fill-opacity="1"><g transform="translate(85.576208, 163.500003)"><g><path d="M 7.203125 -77.921875 L 0.796875 -77.921875 L 7.203125 -106.71875 L 36 -106.71875 L 36 -68.3125 L 53.765625 -68.3125 L 53.765625 -106.71875 L 82.5625 -106.71875 L 82.5625 0 L 53.765625 0 L 53.765625 -40 L 36 -40 L 36 0 L 7.203125 0 Z M 7.203125 -77.921875 "/></g></g></g><g fill="#7c0000" fill-opacity="1"><g transform="translate(178.854055, 163.500003)"><g><path d="M 7.203125 -77.921875 L 0.796875 -77.921875 L 7.203125 -106.71875 L 36 -106.71875 L 36 -68.3125 L 53.765625 -68.3125 L 53.765625 -106.71875 L 82.5625 -106.71875 L 82.5625 0 L 53.765625 0 L 53.765625 -40 L 36 -40 L 36 0 L 7.203125 0 Z M 7.203125 -77.921875 "/></g></g></g><g fill="#7c0000" fill-opacity="1"><g transform="translate(272.131891, 163.500003)"><g><path d="M 11.203125 -35.515625 C 15.148438 -32.742188 19.304688 -30.582031 23.671875 -29.03125 C 28.046875 -27.488281 32.101562 -26.71875 35.84375 -26.71875 C 37.976562 -26.71875 39.738281 -27.25 41.125 -28.3125 C 42.507812 -29.382812 43.203125 -30.828125 43.203125 -32.640625 C 43.203125 -33.597656 43.039062 -34.476562 42.71875 -35.28125 C 42.394531 -36.082031 41.753906 -36.910156 40.796875 -37.765625 C 39.835938 -38.617188 38.53125 -39.523438 36.875 -40.484375 C 35.226562 -41.441406 33.070312 -42.5625 30.40625 -43.84375 C 25.382812 -46.1875 21.515625 -48.210938 18.796875 -49.921875 C 16.078125 -51.628906 13.707031 -53.441406 11.6875 -55.359375 C 8.90625 -57.816406 6.796875 -60.910156 5.359375 -64.640625 C 3.921875 -68.367188 3.203125 -72.367188 3.203125 -76.640625 C 3.203125 -81.222656 3.945312 -85.4375 5.4375 -89.28125 C 6.9375 -93.125 9.046875 -96.457031 11.765625 -99.28125 C 14.484375 -102.101562 17.65625 -104.3125 21.28125 -105.90625 C 24.90625 -107.507812 28.90625 -108.3125 33.28125 -108.3125 C 35.519531 -108.3125 37.625 -108.175781 39.59375 -107.90625 C 41.570312 -107.644531 44.160156 -107.144531 47.359375 -106.40625 L 48.484375 -111.046875 L 71.515625 -105.4375 L 64.3125 -76.15625 C 61.332031 -78.613281 58.023438 -80.507812 54.390625 -81.84375 C 50.765625 -83.175781 47.25 -83.84375 43.84375 -83.84375 C 41.175781 -83.84375 39.015625 -83.332031 37.359375 -82.3125 C 35.703125 -81.300781 34.875 -79.941406 34.875 -78.234375 C 34.875 -77.378906 35.0625 -76.578125 35.4375 -75.828125 C 35.8125 -75.085938 36.53125 -74.289062 37.59375 -73.4375 C 38.664062 -72.582031 40.109375 -71.617188 41.921875 -70.546875 C 43.734375 -69.484375 46.023438 -68.257812 48.796875 -66.875 C 51.460938 -65.488281 53.726562 -64.289062 55.59375 -63.28125 C 57.46875 -62.269531 59.070312 -61.3125 60.40625 -60.40625 C 61.738281 -59.5 62.882812 -58.617188 63.84375 -57.765625 C 64.800781 -56.910156 65.707031 -55.945312 66.5625 -54.875 C 71.25 -49.226562 73.59375 -42.242188 73.59375 -33.921875 C 73.59375 -28.691406 72.710938 -23.890625 70.953125 -19.515625 C 69.191406 -15.140625 66.765625 -11.40625 63.671875 -8.3125 C 60.585938 -5.226562 56.882812 -2.804688 52.5625 -1.046875 C 48.238281 0.710938 43.460938 1.59375 38.234375 1.59375 C 32.472656 1.59375 26.875 0.796875 21.4375 -0.796875 C 16 -2.398438 10.347656 -4.90625 4.484375 -8.3125 Z M 11.203125 -35.515625 "/></g></g></g></svg>