<svg xmlns="http://www.w3.org/2000/svg" xmlns:xlink="http://www.w3.org/1999/xlink" width="500" zoomAndPan="magnify" viewBox="0 0 375 225" height="300" preserveAspectRatio="xMidYMid meet" version="1.0"><defs><g/></defs><g fill="#fa7200" fill-opacity="1"><g transform="translate(15.580496, 163.500003)"><g><path d="M 7.199219 -72.917969 L -5.433594 -72.917969 L 3.1875 -111.71875 L 41 -111.71875 L 41 -66.078125 L 36 -66.078125 L 31.359375 -67.941406 L 48.9375 -111.71875 L 89.34375 -111.71875 L 64.113281 -52.90625 L 59.519531 -54.878906 L 64.058594 -56.972656 L 92.605469 5 L 50.3125 5 L 31.410156 -38.820312 L 36 -40.800781 L 41 -40.800781 L 41 5 L 2.199219 5 L 2.199219 -77.917969 L 7.199219 -77.917969 Z M 12.199219 -82.917969 L 12.199219 0 L 7.199219 0 L 7.199219 -5 L 36 -5 L 36 0 L 31 0 L 31 -40.800781 L 40.589844 -42.78125 L 58.191406 -1.980469 L 53.597656 0 L 53.597656 -5 L 84.796875 -5 L 84.796875 0 L 80.257812 2.09375 L 54.046875 -54.808594 L 77.164062 -108.691406 L 81.757812 -106.71875 L 81.757812 -101.71875 L 52.320312 -101.71875 L 52.320312 -106.71875 L 56.960938 -104.855469 L 40.640625 -64.214844 L 31 -66.078125 L 31 -106.71875 L 36 -106.71875 L 36 -101.71875 L 7.199219 -101.71875 L 7.199219 -106.71875 L 12.082031 -105.632812 L 5.679688 -76.835938 L 0.800781 -77.917969 L 0.800781 -82.917969 Z M 12.199219 -82.917969 "/></g></g></g><g fill="#fa7200" fill-opacity="1"><g transform="translate(101.178533, 163.500003)"><g><path d="M 7.199219 -72.917969 L -5.433594 -72.917969 L 3.1875 -111.71875 L 38.71875 -111.71875 C 43.277344 -111.71875 47.328125 -111.523438 50.871094 -111.128906 C 54.582031 -110.714844 57.886719 -110.027344 60.78125 -109.0625 C 63.804688 -108.054688 66.5 -106.714844 68.875 -105.050781 C 71.160156 -103.441406 73.335938 -101.484375 75.40625 -99.171875 C 82.226562 -91.253906 85.640625 -80.757812 85.640625 -67.679688 C 85.640625 -48.910156 79.515625 -36.335938 67.265625 -29.964844 L 64.960938 -34.398438 L 69.515625 -36.457031 L 88.21875 5 L 43.878906 5 L 32.839844 -29.183594 L 37.597656 -30.71875 L 37.597656 -25.71875 L 36 -25.71875 L 36 -30.71875 L 41 -30.71875 L 41 5 L 2.199219 5 L 2.199219 -77.917969 L 7.199219 -77.917969 Z M 12.199219 -82.917969 L 12.199219 0 L 7.199219 0 L 7.199219 -5 L 36 -5 L 36 0 L 31 0 L 31 -35.71875 L 41.238281 -35.71875 L 52.277344 -1.535156 L 47.519531 0 L 47.519531 -5 L 80.480469 -5 L 80.480469 0 L 75.921875 2.054688 L 58.457031 -36.652344 L 62.652344 -38.835938 C 71.308594 -43.339844 75.636719 -52.957031 75.636719 -67.679688 C 75.636719 -78.28125 73.078125 -86.554688 67.953125 -92.503906 C 66.394531 -94.246094 64.785156 -95.699219 63.125 -96.867188 C 61.550781 -97.972656 59.714844 -98.875 57.617188 -99.574219 C 55.394531 -100.316406 52.777344 -100.855469 49.765625 -101.1875 C 46.589844 -101.542969 42.90625 -101.71875 38.71875 -101.71875 L 7.199219 -101.71875 L 7.199219 -106.71875 L 12.082031 -105.632812 L 5.679688 -76.835938 L 0.800781 -77.917969 L 0.800781 -82.917969 Z M 41 -78.878906 L 41 -53.917969 L 36 -53.917969 L 37.210938 -58.769531 C 37.242188 -58.761719 37.261719 -58.757812 37.28125 -58.757812 L 38.238281 -58.757812 C 40.625 -58.757812 42.363281 -59.347656 43.457031 -60.519531 C 44.644531 -61.800781 45.238281 -63.816406 45.238281 -66.558594 C 45.238281 -69.296875 44.707031 -71.207031 43.640625 -72.285156 C 42.59375 -73.347656 40.738281 -73.878906 38.078125 -73.878906 L 36 -73.878906 L 36 -78.878906 Z M 31 -83.878906 L 38.078125 -83.878906 C 43.527344 -83.878906 47.753906 -82.355469 50.757812 -79.3125 C 53.746094 -76.285156 55.238281 -72.035156 55.238281 -66.558594 C 55.238281 -61.195312 53.753906 -56.914062 50.785156 -53.714844 C 47.714844 -50.410156 43.53125 -48.757812 38.238281 -48.757812 L 37.28125 -48.757812 C 36.441406 -48.757812 35.613281 -48.863281 34.785156 -49.070312 L 31 -50.015625 Z M 31 -83.878906 "/></g></g></g><g fill="#fa7200" fill-opacity="1"><g transform="translate(189.8165, 163.500003)"><g><path d="M 7.199219 -72.917969 L -5.433594 -72.917969 L 3.1875 -111.71875 L 41 -111.71875 L 41 -68.320312 L 36 -68.320312 L 36 -73.320312 L 53.757812 -73.320312 L 53.757812 -68.320312 L 48.757812 -68.320312 L 48.757812 -111.71875 L 87.558594 -111.71875 L 87.558594 5 L 48.757812 5 L 48.757812 -40 L 53.757812 -40 L 53.757812 -35 L 36 -35 L 36 -40 L 41 -40 L 41 5 L 2.199219 5 L 2.199219 -77.917969 L 7.199219 -77.917969 Z M 12.199219 -82.917969 L 12.199219 0 L 7.199219 0 L 7.199219 -5 L 36 -5 L 36 0 L 31 0 L 31 -45 L 58.757812 -45 L 58.757812 0 L 53.757812 0 L 53.757812 -5 L 82.558594 -5 L 82.558594 0 L 77.558594 0 L 77.558594 -106.71875 L 82.558594 -106.71875 L 82.558594 -101.71875 L 53.757812 -101.71875 L 53.757812 -106.71875 L 58.757812 -106.71875 L 58.757812 -63.320312 L 31 -63.320312 L 31 -106.71875 L 36 -106.71875 L 36 -101.71875 L 7.199219 -101.71875 L 7.199219 -106.71875 L 12.082031 -105.632812 L 5.679688 -76.835938 L 0.800781 -77.917969 L 0.800781 -82.917969 Z M 12.199219 -82.917969 "/></g></g></g><g fill="#fa7200" fill-opacity="1"><g transform="translate(283.094347, 163.500003)"><g><path d="M 14.074219 -39.609375 C 17.648438 -37.101562 21.40625 -35.148438 25.347656 -33.753906 C 29.179688 -32.398438 32.679688 -31.71875 35.839844 -31.71875 C 36.839844 -31.71875 37.582031 -31.90625 38.070312 -32.28125 C 38.15625 -32.347656 38.199219 -32.46875 38.199219 -32.640625 C 38.199219 -32.957031 38.160156 -33.21875 38.078125 -33.421875 L 38.046875 -33.4375 C 37.914062 -33.605469 37.726562 -33.800781 37.476562 -34.023438 C 36.769531 -34.652344 35.730469 -35.363281 34.367188 -36.15625 C 32.828125 -37.050781 30.785156 -38.109375 28.234375 -39.332031 C 23.066406 -41.75 19.035156 -43.867188 16.140625 -45.683594 C 13.140625 -47.566406 10.507812 -49.582031 8.242188 -51.730469 L 11.679688 -55.359375 L 8.367188 -51.613281 C 4.984375 -54.605469 2.425781 -58.347656 0.695312 -62.839844 C -0.96875 -67.152344 -1.800781 -71.75 -1.800781 -76.640625 C -1.800781 -81.851562 -0.941406 -86.667969 0.78125 -91.089844 C 2.515625 -95.554688 4.972656 -99.4375 8.15625 -102.746094 C 11.332031 -106.046875 15.035156 -108.628906 19.261719 -110.492188 C 23.53125 -112.375 28.203125 -113.320312 33.28125 -113.320312 C 35.742188 -113.320312 38.074219 -113.171875 40.269531 -112.875 C 42.398438 -112.585938 45.140625 -112.050781 48.496094 -111.269531 L 47.359375 -106.398438 L 42.5 -107.570312 L 44.792969 -117.078125 L 77.570312 -109.113281 L 67.277344 -67.257812 L 61.144531 -72.296875 C 58.59375 -74.390625 55.769531 -76.007812 52.671875 -77.144531 C 49.605469 -78.273438 46.660156 -78.839844 43.839844 -78.839844 C 42.113281 -78.839844 40.824219 -78.578125 39.972656 -78.054688 C 39.863281 -77.988281 39.785156 -77.929688 39.730469 -77.882812 C 39.738281 -77.886719 39.75 -77.90625 39.773438 -77.941406 C 39.84375 -78.058594 39.878906 -78.160156 39.878906 -78.238281 C 39.878906 -78.171875 39.890625 -78.117188 39.910156 -78.074219 C 39.890625 -78.113281 39.878906 -78.140625 39.867188 -78.15625 C 39.890625 -78.121094 39.925781 -78.078125 39.976562 -78.023438 C 40.152344 -77.828125 40.402344 -77.597656 40.722656 -77.34375 C 41.601562 -76.640625 42.847656 -75.8125 44.453125 -74.867188 C 46.171875 -73.859375 48.363281 -72.6875 51.035156 -71.351562 C 53.777344 -69.925781 56.09375 -68.699219 57.984375 -67.671875 C 59.996094 -66.582031 61.738281 -65.535156 63.210938 -64.535156 C 64.722656 -63.503906 66.039062 -62.492188 67.160156 -61.496094 C 68.332031 -60.453125 69.433594 -59.289062 70.464844 -58.003906 C 75.886719 -51.46875 78.597656 -43.441406 78.597656 -33.917969 C 78.597656 -28.046875 77.597656 -22.625 75.597656 -17.652344 C 73.582031 -12.648438 70.789062 -8.359375 67.214844 -4.785156 C 63.644531 -1.214844 59.390625 1.578125 54.445312 3.589844 C 49.519531 5.597656 44.117188 6.601562 38.238281 6.601562 C 32 6.601562 25.929688 5.730469 20.027344 3.996094 C 14.203125 2.28125 8.179688 -0.382812 1.964844 -4 L -1.273438 -5.882812 L 8.097656 -43.808594 Z M 8.324219 -31.429688 L 11.199219 -35.519531 L 16.054688 -34.320312 L 9.335938 -7.121094 L 4.480469 -8.320312 L 6.996094 -12.640625 C 12.511719 -9.429688 17.796875 -7.082031 22.851562 -5.597656 C 27.828125 -4.132812 32.960938 -3.398438 38.238281 -3.398438 C 42.8125 -3.398438 46.957031 -4.15625 50.671875 -5.671875 C 54.371094 -7.175781 57.527344 -9.238281 60.144531 -11.855469 C 62.753906 -14.46875 64.8125 -17.644531 66.320312 -21.386719 C 67.839844 -25.160156 68.597656 -29.339844 68.597656 -33.917969 C 68.597656 -41.035156 66.617188 -46.980469 62.65625 -51.753906 C 61.976562 -52.601562 61.265625 -53.355469 60.515625 -54.023438 C 59.71875 -54.730469 58.742188 -55.480469 57.585938 -56.265625 C 56.390625 -57.078125 54.933594 -57.949219 53.214844 -58.882812 C 51.375 -59.882812 49.15625 -61.058594 46.5625 -62.40625 C 43.6875 -63.84375 41.296875 -65.125 39.382812 -66.25 C 37.363281 -67.4375 35.730469 -68.53125 34.476562 -69.535156 C 32.835938 -70.84375 31.667969 -72.203125 30.96875 -73.601562 C 30.242188 -75.054688 29.878906 -76.597656 29.878906 -78.238281 C 29.878906 -80.027344 30.328125 -81.65625 31.226562 -83.136719 C 32.058594 -84.503906 33.230469 -85.652344 34.746094 -86.582031 C 37.203125 -88.085938 40.234375 -88.839844 43.839844 -88.839844 C 47.847656 -88.839844 51.941406 -88.070312 56.125 -86.53125 C 60.28125 -85.003906 64.070312 -82.832031 67.492188 -80.023438 L 64.320312 -76.160156 L 59.464844 -77.351562 L 66.664062 -106.632812 L 71.519531 -105.4375 L 70.339844 -100.578125 L 47.296875 -106.179688 L 48.480469 -111.039062 L 53.339844 -109.863281 L 51.054688 -100.402344 L 46.222656 -101.527344 C 43.175781 -102.238281 40.746094 -102.71875 38.929688 -102.964844 C 37.179688 -103.199219 35.296875 -103.316406 33.28125 -103.316406 C 29.609375 -103.316406 26.28125 -102.660156 23.296875 -101.34375 C 20.273438 -100.007812 17.628906 -98.164062 15.363281 -95.8125 C 13.105469 -93.464844 11.351562 -90.683594 10.101562 -87.464844 C 8.832031 -84.210938 8.199219 -80.601562 8.199219 -76.640625 C 8.199219 -72.992188 8.808594 -69.59375 10.023438 -66.4375 C 11.171875 -63.464844 12.828125 -61.019531 14.992188 -59.105469 L 15.058594 -59.046875 L 15.117188 -58.988281 C 16.90625 -57.296875 19.019531 -55.683594 21.457031 -54.15625 C 24.003906 -52.558594 27.707031 -50.621094 32.5625 -48.347656 C 35.347656 -47.011719 37.625 -45.828125 39.390625 -44.804688 C 41.332031 -43.675781 42.910156 -42.574219 44.121094 -41.496094 C 45.667969 -40.121094 46.75 -38.667969 47.363281 -37.136719 C 47.921875 -35.742188 48.199219 -34.242188 48.199219 -32.640625 C 48.199219 -29.183594 46.855469 -26.421875 44.167969 -24.355469 C 41.882812 -22.597656 39.105469 -21.71875 35.839844 -21.71875 C 31.535156 -21.71875 26.925781 -22.589844 22.011719 -24.324219 C 17.207031 -26.023438 12.644531 -28.390625 8.324219 -31.429688 Z M 8.324219 -31.429688 "/></g></g></g><g fill="#005130" fill-opacity="1"><g transform="translate(15.580496, 163.500003)"><g><path d="M 7.203125 -77.921875 L 0.796875 -77.921875 L 7.203125 -106.71875 L 36 -106.71875 L 36 -66.078125 L 52.3125 -106.71875 L 81.765625 -106.71875 L 59.515625 -54.875 L 84.796875 0 L 53.59375 0 L 36 -40.796875 L 36 0 L 7.203125 0 Z M 7.203125 -77.921875 "/></g></g></g><g fill="#005130" fill-opacity="1"><g transform="translate(101.178533, 163.500003)"><g><path d="M 7.203125 -77.921875 L 0.796875 -77.921875 L 7.203125 -106.71875 L 38.71875 -106.71875 C 43.09375 -106.71875 46.957031 -106.53125 50.3125 -106.15625 C 53.675781 -105.78125 56.640625 -105.164062 59.203125 -104.3125 C 61.765625 -103.46875 64.03125 -102.347656 66 -100.953125 C 67.96875 -99.566406 69.863281 -97.863281 71.6875 -95.84375 C 77.65625 -88.90625 80.640625 -79.519531 80.640625 -67.6875 C 80.640625 -50.9375 75.410156 -39.84375 64.953125 -34.40625 L 80.484375 0 L 47.515625 0 L 37.59375 -30.71875 L 36 -30.71875 L 36 0 L 7.203125 0 Z M 36 -78.875 L 36 -53.921875 C 36.425781 -53.816406 36.851562 -53.765625 37.28125 -53.765625 C 37.707031 -53.765625 38.023438 -53.765625 38.234375 -53.765625 C 42.078125 -53.765625 45.035156 -54.882812 47.109375 -57.125 C 49.191406 -59.363281 50.234375 -62.507812 50.234375 -66.5625 C 50.234375 -74.769531 46.179688 -78.875 38.078125 -78.875 Z M 36 -78.875 "/></g></g></g><g fill="#005130" fill-opacity="1"><g transform="translate(189.8165, 163.500003)"><g><path d="M 7.203125 -77.921875 L 0.796875 -77.921875 L 7.203125 -106.71875 L 36 -106.71875 L 36 -68.3125 L 53.765625 -68.3125 L 53.765625 -106.71875 L 82.5625 -106.71875 L 82.5625 0 L 53.765625 0 L 53.765625 -40 L 36 -40 L 36 0 L 7.203125 0 Z M 7.203125 -77.921875 "/></g></g></g><g fill="#005130" fill-opacity="1"><g transform="translate(283.094347, 163.500003)"><g><path d="M 11.203125 -35.515625 C 15.148438 -32.742188 19.304688 -30.582031 23.671875 -29.03125 C 28.046875 -27.488281 32.101562 -26.71875 35.84375 -26.71875 C 37.976562 -26.71875 39.738281 -27.25 41.125 -28.3125 C 42.507812 -29.382812 43.203125 -30.828125 43.203125 -32.640625 C 43.203125 -33.597656 43.039062 -34.476562 42.71875 -35.28125 C 42.394531 -36.082031 41.753906 -36.910156 40.796875 -37.765625 C 39.835938 -38.617188 38.53125 -39.523438 36.875 -40.484375 C 35.226562 -41.441406 33.070312 -42.5625 30.40625 -43.84375 C 25.382812 -46.1875 21.515625 -48.210938 18.796875 -49.921875 C 16.078125 -51.628906 13.707031 -53.441406 11.6875 -55.359375 C 8.90625 -57.816406 6.796875 -60.910156 5.359375 -64.640625 C 3.921875 -68.367188 3.203125 -72.367188 3.203125 -76.640625 C 3.203125 -81.222656 3.945312 -85.4375 5.4375 -89.28125 C 6.9375 -93.125 9.046875 -96.457031 11.765625 -99.28125 C 14.484375 -102.101562 17.65625 -104.3125 21.28125 -105.90625 C 24.90625 -107.507812 28.90625 -108.3125 33.28125 -108.3125 C 35.519531 -108.3125 37.625 -108.175781 39.59375 -107.90625 C 41.570312 -107.644531 44.160156 -107.144531 47.359375 -106.40625 L 48.484375 -111.046875 L 71.515625 -105.4375 L 64.3125 -76.15625 C 61.332031 -78.613281 58.023438 -80.507812 54.390625 -81.84375 C 50.765625 -83.175781 47.25 -83.84375 43.84375 -83.84375 C 41.175781 -83.84375 39.015625 -83.332031 37.359375 -82.3125 C 35.703125 -81.300781 34.875 -79.941406 34.875 -78.234375 C 34.875 -77.378906 35.0625 -76.578125 35.4375 -75.828125 C 35.8125 -75.085938 36.53125 -74.289062 37.59375 -73.4375 C 38.664062 -72.582031 40.109375 -71.617188 41.921875 -70.546875 C 43.734375 -69.484375 46.023438 -68.257812 48.796875 -66.875 C 51.460938 -65.488281 53.726562 -64.289062 55.59375 -63.28125 C 57.46875 -62.269531 59.070312 -61.3125 60.40625 -60.40625 C 61.738281 -59.5 62.882812 -58.617188 63.84375 -57.765625 C 64.800781 -56.910156 65.707031 -55.945312 66.5625 -54.875 C 71.25 -49.226562 73.59375 -42.242188 73.59375 -33.921875 C 73.59375 -28.691406 72.710938 -23.890625 70.953125 -19.515625 C 69.191406 -15.140625 66.765625 -11.40625 63.671875 -8.3125 C 60.585938 -5.226562 56.882812 -2.804688 52.5625 -1.046875 C 48.238281 0.710938 43.460938 1.59375 38.234375 1.59375 C 32.472656 1.59375 26.875 0.796875 21.4375 -0.796875 C 16 -2.398438 10.347656 -4.90625 4.484375 -8.3125 Z M 11.203125 -35.515625 "/></g></g></g></svg>