<svg xmlns="http://www.w3.org/2000/svg" xmlns:xlink="http://www.w3.org/1999/xlink" width="500" zoomAndPan="magnify" viewBox="0 0 375 225" height="300" preserveAspectRatio="xMidYMid meet" version="1.0"><defs><g/></defs><g fill="#000000" fill-opacity="1"><g transform="translate(101.971117, 163.500003)"><g><path d="M 7.199219 -72.917969 L -5.433594 -72.917969 L 3.1875 -111.71875 L 41 -111.71875 L 41 -66.078125 L 36 -66.078125 L 31.359375 -67.941406 L 48.9375 -111.71875 L 89.34375 -111.71875 L 64.113281 -52.90625 L 59.519531 -54.878906 L 64.058594 -56.972656 L 92.605469 5 L 50.3125 5 L 31.410156 -38.820312 L 36 -40.800781 L 41 -40.800781 L 41 5 L 2.199219 5 L 2.199219 -77.917969 L 7.199219 -77.917969 Z M 12.199219 -82.917969 L 12.199219 0 L 7.199219 0 L 7.199219 -5 L 36 -5 L 36 0 L 31 0 L 31 -40.800781 L 40.589844 -42.78125 L 58.191406 -1.980469 L 53.597656 0 L 53.597656 -5 L 84.796875 -5 L 84.796875 0 L 80.257812 2.09375 L 54.046875 -54.808594 L 77.164062 -108.691406 L 81.757812 -106.71875 L 81.757812 -101.71875 L 52.320312 -101.71875 L 52.320312 -106.71875 L 56.960938 -104.855469 L 40.640625 -64.214844 L 31 -66.078125 L 31 -106.71875 L 36 -106.71875 L 36 -101.71875 L 7.199219 -101.71875 L 7.199219 -106.71875 L 12.082031 -105.632812 L 5.679688 -76.835938 L 0.800781 -77.917969 L 0.800781 -82.917969 Z M 12.199219 -82.917969 "/></g></g></g><g fill="#000000" fill-opacity="1"><g transform="translate(187.569155, 163.500003)"><g><path d="M 7.199219 -72.917969 L -5.433594 -72.917969 L 3.1875 -111.71875 L 38.71875 -111.71875 C 43.277344 -111.71875 47.328125 -111.523438 50.871094 -111.128906 C 54.582031 -110.714844 57.886719 -110.027344 60.78125 -109.0625 C 63.804688 -108.054688 66.5 -106.714844 68.875 -105.050781 C 71.160156 -103.441406 73.335938 -101.484375 75.40625 -99.171875 C 82.226562 -91.253906 85.640625 -80.757812 85.640625 -67.679688 C 85.640625 -48.910156 79.515625 -36.335938 67.265625 -29.964844 L 64.960938 -34.398438 L 69.515625 -36.457031 L 88.21875 5 L 43.878906 5 L 32.839844 -29.183594 L 37.597656 -30.71875 L 37.597656 -25.71875 L 36 -25.71875 L 36 -30.71875 L 41 -30.71875 L 41 5 L 2.199219 5 L 2.199219 -77.917969 L 7.199219 -77.917969 Z M 12.199219 -82.917969 L 12.199219 0 L 7.199219 0 L 7.199219 -5 L 36 -5 L 36 0 L 31 0 L 31 -35.71875 L 41.238281 -35.71875 L 52.277344 -1.535156 L 47.519531 0 L 47.519531 -5 L 80.480469 -5 L 80.480469 0 L 75.921875 2.054688 L 58.457031 -36.652344 L 62.652344 -38.835938 C 71.308594 -43.339844 75.636719 -52.957031 75.636719 -67.679688 C 75.636719 -78.28125 73.078125 -86.554688 67.953125 -92.503906 C 66.394531 -94.246094 64.785156 -95.699219 63.125 -96.867188 C 61.550781 -97.972656 59.714844 -98.875 57.617188 -99.574219 C 55.394531 -100.316406 52.777344 -100.855469 49.765625 -101.1875 C 46.589844 -101.542969 42.90625 -101.71875 38.71875 -101.71875 L 7.199219 -101.71875 L 7.199219 -106.71875 L 12.082031 -105.632812 L 5.679688 -76.835938 L 0.800781 -77.917969 L 0.800781 -82.917969 Z M 41 -78.878906 L 41 -53.917969 L 36 -53.917969 L 37.210938 -58.769531 C 37.242188 -58.761719 37.261719 -58.757812 37.28125 -58.757812 L 38.238281 -58.757812 C 40.625 -58.757812 42.363281 -59.347656 43.457031 -60.519531 C 44.644531 -61.800781 45.238281 -63.816406 45.238281 -66.558594 C 45.238281 -69.296875 44.707031 -71.207031 43.640625 -72.285156 C 42.59375 -73.347656 40.738281 -73.878906 38.078125 -73.878906 L 36 -73.878906 L 36 -78.878906 Z M 31 -83.878906 L 38.078125 -83.878906 C 43.527344 -83.878906 47.753906 -82.355469 50.757812 -79.3125 C 53.746094 -76.285156 55.238281 -72.035156 55.238281 -66.558594 C 55.238281 -61.195312 53.753906 -56.914062 50.785156 -53.714844 C 47.714844 -50.410156 43.53125 -48.757812 38.238281 -48.757812 L 37.28125 -48.757812 C 36.441406 -48.757812 35.613281 -48.863281 34.785156 -49.070312 L 31 -50.015625 Z M 31 -83.878906 "/></g></g></g><g fill="#005130" fill-opacity="1"><g transform="translate(101.971117, 163.500003)"><g><path d="M 7.203125 -77.921875 L 0.796875 -77.921875 L 7.203125 -106.71875 L 36 -106.71875 L 36 -66.078125 L 52.3125 -106.71875 L 81.765625 -106.71875 L 59.515625 -54.875 L 84.796875 0 L 53.59375 0 L 36 -40.796875 L 36 0 L 7.203125 0 Z M 7.203125 -77.921875 "/></g></g></g><g fill="#005130" fill-opacity="1"><g transform="translate(187.569155, 163.500003)"><g><path d="M 7.203125 -77.921875 L 0.796875 -77.921875 L 7.203125 -106.71875 L 38.71875 -106.71875 C 43.09375 -106.71875 46.957031 -106.53125 50.3125 -106.15625 C 53.675781 -105.78125 56.640625 -105.164062 59.203125 -104.3125 C 61.765625 -103.46875 64.03125 -102.347656 66 -100.953125 C 67.96875 -99.566406 69.863281 -97.863281 71.6875 -95.84375 C 77.65625 -88.90625 80.640625 -79.519531 80.640625 -67.6875 C 80.640625 -50.9375 75.410156 -39.84375 64.953125 -34.40625 L 80.484375 0 L 47.515625 0 L 37.59375 -30.71875 L 36 -30.71875 L 36 0 L 7.203125 0 Z M 36 -78.875 L 36 -53.921875 C 36.425781 -53.816406 36.851562 -53.765625 37.28125 -53.765625 C 37.707031 -53.765625 38.023438 -53.765625 38.234375 -53.765625 C 42.078125 -53.765625 45.035156 -54.882812 47.109375 -57.125 C 49.191406 -59.363281 50.234375 -62.507812 50.234375 -66.5625 C 50.234375 -74.769531 46.179688 -78.875 38.078125 -78.875 Z M 36 -78.875 "/></g></g></g></svg>