<svg xmlns="http://www.w3.org/2000/svg" xmlns:xlink="http://www.w3.org/1999/xlink" width="500" zoomAndPan="magnify" viewBox="0 0 375 374.999991" height="500" preserveAspectRatio="xMidYMid meet" version="1.0"><defs><g/><clipPath id="224e6afb44"><rect x="0" width="372" y="0" height="348"/></clipPath></defs><g transform="matrix(1, 0, 0, 1, 2, 0)"><g clip-path="url(#224e6afb44)"><g fill="#ffffff" fill-opacity="1"><g transform="translate(24.987205, 251.902889)"><g><path d="M 13.769531 -143.296875 L -5.621094 -143.296875 L 9.167969 -209.855469 L 74.59375 -209.855469 L 74.59375 -126.386719 L 68.855469 -126.386719 L 63.53125 -128.527344 L 96.191406 -209.855469 L 165.082031 -209.855469 L 119.113281 -102.703125 L 113.839844 -104.964844 L 119.050781 -107.367188 L 171.152344 5.738281 L 98.742188 5.738281 L 63.585938 -75.761719 L 68.855469 -78.035156 L 74.59375 -78.035156 L 74.59375 5.738281 L 8.03125 5.738281 L 8.03125 -149.03125 L 13.769531 -149.03125 Z M 19.507812 -154.769531 L 19.507812 0 L 13.769531 0 L 13.769531 -5.738281 L 68.855469 -5.738281 L 68.855469 0 L 63.117188 0 L 63.117188 -78.035156 L 74.125 -80.308594 L 107.785156 -2.273438 L 102.515625 0 L 102.515625 -5.738281 L 162.191406 -5.738281 L 162.191406 0 L 156.980469 2.402344 L 107.5625 -104.882812 L 151.105469 -206.378906 L 156.378906 -204.117188 L 156.378906 -198.378906 L 100.070312 -198.378906 L 100.070312 -204.117188 L 105.394531 -201.980469 L 74.179688 -124.25 L 63.117188 -126.386719 L 63.117188 -204.117188 L 68.855469 -204.117188 L 68.855469 -198.378906 L 13.769531 -198.378906 L 13.769531 -204.117188 L 19.371094 -202.871094 L 7.132812 -147.789062 L 1.53125 -149.03125 L 1.53125 -154.769531 Z M 19.507812 -154.769531 "/></g></g></g><g fill="#ffffff" fill-opacity="1"><g transform="translate(182.595145, 251.902889)"><g><path d="M 13.769531 -143.296875 L -5.621094 -143.296875 L 9.167969 -209.855469 L 74.058594 -209.855469 C 82.632812 -209.855469 90.242188 -209.484375 96.878906 -208.75 C 103.707031 -207.988281 109.761719 -206.730469 115.042969 -204.96875 C 120.46875 -203.160156 125.300781 -200.769531 129.535156 -197.796875 C 133.667969 -194.890625 137.613281 -191.335938 141.375 -187.132812 C 153.773438 -172.742188 159.972656 -153.515625 159.972656 -129.449219 C 159.972656 -95.09375 148.945312 -72.179688 126.894531 -60.703125 L 124.246094 -65.792969 L 129.476562 -68.15625 L 162.8125 5.738281 L 86.710938 5.738281 L 66.453125 -56.992188 L 71.914062 -58.757812 L 71.914062 -53.019531 L 68.855469 -53.019531 L 68.855469 -58.757812 L 74.59375 -58.757812 L 74.59375 5.738281 L 8.03125 5.738281 L 8.03125 -149.03125 L 13.769531 -149.03125 Z M 19.507812 -154.769531 L 19.507812 0 L 13.769531 0 L 13.769531 -5.738281 L 68.855469 -5.738281 L 68.855469 0 L 63.117188 0 L 63.117188 -64.496094 L 76.09375 -64.496094 L 96.347656 -1.761719 L 90.890625 0 L 90.890625 -5.738281 L 153.929688 -5.738281 L 153.929688 0 L 148.699219 2.359375 L 116.785156 -68.378906 L 121.597656 -70.886719 C 139.53125 -80.21875 148.496094 -99.738281 148.496094 -129.449219 C 148.496094 -150.671875 143.273438 -167.351562 132.820312 -179.480469 C 129.644531 -183.03125 126.351562 -186.003906 122.933594 -188.40625 C 119.621094 -190.734375 115.777344 -192.628906 111.414062 -194.082031 C 106.902344 -195.585938 101.632812 -196.671875 95.609375 -197.34375 C 89.394531 -198.035156 82.210938 -198.378906 74.058594 -198.378906 L 13.769531 -198.378906 L 13.769531 -204.117188 L 19.371094 -202.871094 L 7.132812 -147.789062 L 1.53125 -149.03125 L 1.53125 -154.769531 Z M 74.59375 -150.867188 L 74.59375 -103.128906 L 68.855469 -103.128906 L 70.246094 -108.695312 C 70.605469 -108.605469 70.957031 -108.5625 71.304688 -108.5625 L 73.140625 -108.5625 C 78.816406 -108.5625 83.074219 -110.09375 85.917969 -113.15625 C 88.875 -116.339844 90.351562 -121.054688 90.351562 -127.304688 C 90.351562 -133.589844 88.964844 -138.136719 86.191406 -140.949219 C 83.441406 -143.738281 78.988281 -145.132812 72.832031 -145.132812 L 68.855469 -145.132812 L 68.855469 -150.867188 Z M 63.117188 -156.605469 L 72.832031 -156.605469 C 82.183594 -156.605469 89.359375 -154.074219 94.359375 -149.007812 C 99.339844 -143.964844 101.828125 -136.730469 101.828125 -127.304688 C 101.828125 -118.050781 99.328125 -110.730469 94.328125 -105.34375 C 89.214844 -99.839844 82.152344 -97.085938 73.140625 -97.085938 L 71.304688 -97.085938 C 70.015625 -97.085938 68.734375 -97.246094 67.464844 -97.5625 L 63.117188 -98.648438 Z M 63.117188 -156.605469 "/></g></g></g><g fill="#f37322" fill-opacity="1"><g transform="translate(24.987205, 251.902889)"><g><path d="M 13.765625 -149.03125 L 1.53125 -149.03125 L 13.765625 -204.109375 L 68.859375 -204.109375 L 68.859375 -126.390625 L 100.0625 -204.109375 L 156.375 -204.109375 L 113.84375 -104.96875 L 162.1875 0 L 102.515625 0 L 68.859375 -78.03125 L 68.859375 0 L 13.765625 0 Z M 13.765625 -149.03125 "/></g></g></g><g fill="#005130" fill-opacity="1"><g transform="translate(182.595145, 251.902889)"><g><path d="M 13.765625 -149.03125 L 1.53125 -149.03125 L 13.765625 -204.109375 L 74.0625 -204.109375 C 82.425781 -204.109375 89.816406 -203.75 96.234375 -203.03125 C 102.660156 -202.320312 108.320312 -201.148438 113.21875 -199.515625 C 118.113281 -197.890625 122.445312 -195.75 126.21875 -193.09375 C 130 -190.445312 133.625 -187.179688 137.09375 -183.296875 C 148.519531 -170.035156 154.234375 -152.082031 154.234375 -129.4375 C 154.234375 -97.414062 144.238281 -76.203125 124.25 -65.796875 L 153.921875 0 L 90.890625 0 L 71.90625 -58.75 L 68.859375 -58.75 L 68.859375 0 L 13.765625 0 Z M 68.859375 -150.859375 L 68.859375 -103.125 C 69.671875 -102.925781 70.484375 -102.828125 71.296875 -102.828125 C 72.117188 -102.828125 72.734375 -102.828125 73.140625 -102.828125 C 80.484375 -102.828125 86.144531 -104.96875 90.125 -109.25 C 94.101562 -113.53125 96.09375 -119.546875 96.09375 -127.296875 C 96.09375 -143.003906 88.335938 -150.859375 72.828125 -150.859375 Z M 68.859375 -150.859375 "/></g></g></g><g fill="#005130" fill-opacity="1"><g transform="translate(3.245522, 322.71338)"><g><path d="M 7.84375 -21.652344 C 9.71875 -20.335938 11.6875 -19.3125 13.753906 -18.582031 C 15.746094 -17.875 17.5625 -17.523438 19.191406 -17.523438 C 19.605469 -17.523438 19.898438 -17.585938 20.0625 -17.714844 C 20.03125 -17.6875 19.996094 -17.640625 19.960938 -17.566406 C 19.941406 -17.527344 19.929688 -17.492188 19.921875 -17.457031 L 19.921875 -17.480469 C 19.921875 -17.582031 19.914062 -17.65625 19.894531 -17.699219 C 19.921875 -17.636719 19.9375 -17.59375 19.953125 -17.578125 C 19.902344 -17.644531 19.824219 -17.722656 19.714844 -17.820312 C 19.363281 -18.132812 18.835938 -18.492188 18.136719 -18.898438 C 17.324219 -19.371094 16.242188 -19.929688 14.890625 -20.582031 C 12.105469 -21.882812 9.929688 -23.027344 8.359375 -24.011719 C 6.722656 -25.039062 5.285156 -26.140625 4.046875 -27.3125 L 6.253906 -29.648438 L 4.125 -27.238281 C 2.25 -28.898438 0.832031 -30.972656 -0.128906 -33.460938 C -1.042969 -35.832031 -1.5 -38.359375 -1.5 -41.042969 C -1.5 -43.902344 -1.027344 -46.546875 -0.0820312 -48.976562 C 0.875 -51.433594 2.226562 -53.570312 3.980469 -55.394531 C 5.730469 -57.214844 7.769531 -58.636719 10.097656 -59.664062 C 12.453125 -60.703125 15.027344 -61.222656 17.824219 -61.222656 C 19.164062 -61.222656 20.4375 -61.140625 21.636719 -60.976562 C 22.792969 -60.820312 24.28125 -60.53125 26.09375 -60.109375 L 25.363281 -56.980469 L 22.238281 -57.734375 L 23.59375 -63.347656 L 42.191406 -58.828125 L 36.347656 -35.066406 L 32.40625 -38.300781 C 31.085938 -39.386719 29.625 -40.222656 28.023438 -40.8125 C 26.441406 -41.394531 24.925781 -41.683594 23.476562 -41.683594 C 22.652344 -41.683594 22.054688 -41.570312 21.6875 -41.34375 C 21.660156 -41.328125 21.648438 -41.320312 21.648438 -41.320312 C 21.683594 -41.355469 21.722656 -41.402344 21.757812 -41.460938 C 21.847656 -41.609375 21.890625 -41.757812 21.890625 -41.898438 C 21.890625 -41.949219 21.878906 -42 21.851562 -42.050781 C 21.832031 -42.097656 21.808594 -42.132812 21.789062 -42.164062 C 21.789062 -42.164062 21.792969 -42.15625 21.804688 -42.144531 C 21.882812 -42.058594 21.996094 -41.957031 22.144531 -41.839844 C 22.59375 -41.476562 23.238281 -41.050781 24.078125 -40.554688 C 24.988281 -40.023438 26.152344 -39.398438 27.570312 -38.691406 C 29.046875 -37.921875 30.292969 -37.265625 31.308594 -36.710938 C 32.402344 -36.117188 33.351562 -35.546875 34.152344 -35.003906 C 34.980469 -34.4375 35.703125 -33.882812 36.324219 -33.332031 C 36.972656 -32.753906 37.582031 -32.109375 38.152344 -31.398438 C 41.136719 -27.804688 42.628906 -23.394531 42.628906 -18.164062 C 42.628906 -14.949219 42.078125 -11.980469 40.980469 -9.253906 C 39.875 -6.507812 38.339844 -4.148438 36.375 -2.183594 C 34.410156 -0.222656 32.074219 1.3125 29.359375 2.417969 C 26.65625 3.519531 23.695312 4.070312 20.476562 4.070312 C 17.085938 4.070312 13.785156 3.597656 10.574219 2.652344 C 7.414062 1.722656 4.148438 0.28125 0.785156 -1.679688 L -1.296875 -2.890625 L 4.003906 -24.351562 Z M 4.152344 -16.394531 L 5.996094 -19.023438 L 9.117188 -18.25 L 5.519531 -3.683594 L 2.398438 -4.457031 L 4.015625 -7.234375 C 6.933594 -5.535156 9.722656 -4.292969 12.386719 -3.511719 C 15.003906 -2.742188 17.703125 -2.355469 20.476562 -2.355469 C 22.859375 -2.355469 25.011719 -2.75 26.933594 -3.53125 C 28.847656 -4.3125 30.480469 -5.378906 31.832031 -6.726562 C 33.175781 -8.074219 34.242188 -9.714844 35.019531 -11.652344 C 35.808594 -13.609375 36.203125 -15.78125 36.203125 -18.164062 C 36.203125 -21.847656 35.179688 -24.917969 33.136719 -27.382812 C 32.792969 -27.8125 32.429688 -28.195312 32.054688 -28.53125 C 31.644531 -28.894531 31.136719 -29.28125 30.539062 -29.6875 C 29.914062 -30.113281 29.148438 -30.574219 28.242188 -31.0625 C 27.257812 -31.597656 26.078125 -32.222656 24.695312 -32.941406 C 23.144531 -33.71875 21.855469 -34.410156 20.820312 -35.015625 C 19.714844 -35.667969 18.820312 -36.265625 18.128906 -36.820312 C 17.191406 -37.570312 16.515625 -38.355469 16.105469 -39.175781 C 15.679688 -40.03125 15.464844 -40.9375 15.464844 -41.898438 C 15.464844 -42.957031 15.730469 -43.921875 16.265625 -44.800781 C 16.757812 -45.605469 17.445312 -46.28125 18.328125 -46.824219 C 19.730469 -47.683594 21.445312 -48.113281 23.476562 -48.113281 C 25.6875 -48.113281 27.941406 -47.6875 30.242188 -46.84375 C 32.523438 -46.003906 34.605469 -44.8125 36.484375 -43.269531 L 34.445312 -40.785156 L 31.324219 -41.554688 L 35.179688 -57.234375 L 38.300781 -56.464844 L 37.542969 -53.34375 L 25.203125 -56.34375 L 25.960938 -59.464844 L 29.085938 -58.710938 L 27.738281 -53.125 L 24.632812 -53.851562 C 23.019531 -54.226562 21.734375 -54.480469 20.777344 -54.609375 C 19.863281 -54.734375 18.878906 -54.792969 17.824219 -54.792969 C 15.933594 -54.792969 14.222656 -54.457031 12.691406 -53.78125 C 11.136719 -53.097656 9.777344 -52.148438 8.613281 -50.9375 C 7.453125 -49.734375 6.550781 -48.304688 5.90625 -46.648438 C 5.253906 -44.964844 4.925781 -43.097656 4.925781 -41.042969 C 4.925781 -39.15625 5.242188 -37.398438 5.867188 -35.773438 C 6.453125 -34.261719 7.289062 -33.019531 8.382812 -32.054688 L 8.425781 -32.015625 L 8.464844 -31.980469 C 9.394531 -31.097656 10.5 -30.257812 11.777344 -29.457031 C 13.121094 -28.609375 15.085938 -27.585938 17.671875 -26.375 C 19.175781 -25.652344 20.40625 -25.011719 21.363281 -24.457031 C 22.433594 -23.835938 23.308594 -23.222656 23.984375 -22.625 C 24.875 -21.832031 25.5 -20.984375 25.859375 -20.085938 C 26.1875 -19.273438 26.347656 -18.40625 26.347656 -17.480469 C 26.347656 -15.453125 25.558594 -13.832031 23.980469 -12.621094 C 22.660156 -11.605469 21.0625 -11.097656 19.191406 -11.097656 C 16.828125 -11.097656 14.296875 -11.570312 11.609375 -12.523438 C 8.992188 -13.449219 6.503906 -14.738281 4.152344 -16.394531 Z M 4.152344 -16.394531 "/></g></g></g><g fill="#005130" fill-opacity="1"><g transform="translate(45.315651, 322.71338)"><g><path d="M -0.429688 -60.363281 L 18.851562 -60.363281 L 22.464844 -32.199219 L 19.277344 -31.789062 L 16.121094 -32.375 L 21.320312 -60.363281 L 39.507812 -60.363281 L 44.800781 -32.386719 L 41.640625 -31.789062 L 38.457031 -32.199219 L 42.070312 -60.363281 L 65.148438 -60.363281 L 53.042969 3.214844 L 32.171875 3.214844 L 27.253906 -25.070312 L 30.417969 -25.621094 L 33.578125 -25.046875 L 28.476562 3.214844 L 7.792969 3.214844 L -4.3125 -60.363281 Z M -0.429688 -53.9375 L -0.429688 -57.152344 L 2.726562 -57.753906 L 13.609375 -0.601562 L 10.453125 0 L 10.453125 -3.214844 L 25.789062 -3.214844 L 25.789062 0 L 22.628906 -0.570312 L 27.253906 -26.191406 L 33.582031 -26.171875 L 38.039062 -0.550781 L 34.875 0 L 34.875 -3.214844 L 50.382812 -3.214844 L 50.382812 0 L 47.226562 -0.601562 L 58.109375 -57.753906 L 61.265625 -57.152344 L 61.265625 -53.9375 L 44.898438 -53.9375 L 44.898438 -57.152344 L 48.085938 -56.742188 L 44.828125 -31.378906 L 38.484375 -31.191406 L 33.6875 -56.554688 L 36.84375 -57.152344 L 36.84375 -53.9375 L 23.992188 -53.9375 L 23.992188 -57.152344 L 27.152344 -56.5625 L 22.4375 -31.203125 L 16.09375 -31.378906 L 12.835938 -56.742188 L 16.023438 -57.152344 L 16.023438 -53.9375 Z M -0.429688 -53.9375 "/></g></g></g><g fill="#005130" fill-opacity="1"><g transform="translate(107.007063, 322.71338)"><g><path d="M 4.027344 -38.515625 L -3.40625 -38.515625 L 1.449219 -60.363281 L 22.664062 -60.363281 L 22.664062 3.214844 L 0.8125 3.214844 L 0.8125 -41.726562 L 4.027344 -41.726562 Z M 7.242188 -44.941406 L 7.242188 0 L 4.027344 0 L 4.027344 -3.214844 L 19.449219 -3.214844 L 19.449219 0 L 16.238281 0 L 16.238281 -57.152344 L 19.449219 -57.152344 L 19.449219 -53.9375 L 4.027344 -53.9375 L 4.027344 -57.152344 L 7.164062 -56.453125 L 3.738281 -41.03125 L 0.601562 -41.726562 L 0.601562 -44.941406 Z M 7.242188 -44.941406 "/></g></g></g><g fill="#005130" fill-opacity="1"><g transform="translate(131.340912, 322.71338)"><g><path d="M 3.855469 -38.515625 L -3.578125 -38.515625 L 1.277344 -60.363281 L 21.078125 -60.363281 L 30.160156 -45.550781 L 27.417969 -43.871094 L 24.679688 -45.550781 L 33.757812 -60.363281 L 54.195312 -60.363281 L 54.195312 3.214844 L 32.34375 3.214844 L 32.34375 -32.046875 L 35.558594 -32.046875 L 38.289062 -30.351562 L 27.417969 -12.84375 L 16.550781 -30.351562 L 19.277344 -32.046875 L 22.492188 -32.046875 L 22.492188 3.214844 L 0.640625 3.214844 L 0.640625 -41.726562 L 3.855469 -41.726562 Z M 7.070312 -44.941406 L 7.070312 0 L 3.855469 0 L 3.855469 -3.214844 L 19.277344 -3.214844 L 19.277344 0 L 16.066406 0 L 16.066406 -43.3125 L 30.148438 -20.632812 L 27.417969 -18.9375 L 24.6875 -20.632812 L 38.773438 -43.3125 L 38.773438 0 L 35.558594 0 L 35.558594 -3.214844 L 50.980469 -3.214844 L 50.980469 0 L 47.769531 0 L 47.769531 -57.152344 L 50.980469 -57.152344 L 50.980469 -53.9375 L 35.558594 -53.9375 L 35.558594 -57.152344 L 38.296875 -55.472656 L 27.417969 -37.722656 L 16.539062 -55.472656 L 19.277344 -57.152344 L 19.277344 -53.9375 L 3.855469 -53.9375 L 3.855469 -57.152344 L 6.992188 -56.453125 L 3.566406 -41.03125 L 0.429688 -41.726562 L 0.429688 -44.941406 Z M 7.070312 -44.941406 "/></g></g></g><g fill="#005130" fill-opacity="1"><g transform="translate(187.034553, 322.71338)"><g><path d="M 3.855469 -38.515625 L -3.578125 -38.515625 L 1.277344 -60.363281 L 21.078125 -60.363281 L 30.160156 -45.550781 L 27.417969 -43.871094 L 24.679688 -45.550781 L 33.757812 -60.363281 L 54.195312 -60.363281 L 54.195312 3.214844 L 32.34375 3.214844 L 32.34375 -32.046875 L 35.558594 -32.046875 L 38.289062 -30.351562 L 27.417969 -12.84375 L 16.550781 -30.351562 L 19.277344 -32.046875 L 22.492188 -32.046875 L 22.492188 3.214844 L 0.640625 3.214844 L 0.640625 -41.726562 L 3.855469 -41.726562 Z M 7.070312 -44.941406 L 7.070312 0 L 3.855469 0 L 3.855469 -3.214844 L 19.277344 -3.214844 L 19.277344 0 L 16.066406 0 L 16.066406 -43.3125 L 30.148438 -20.632812 L 27.417969 -18.9375 L 24.6875 -20.632812 L 38.773438 -43.3125 L 38.773438 0 L 35.558594 0 L 35.558594 -3.214844 L 50.980469 -3.214844 L 50.980469 0 L 47.769531 0 L 47.769531 -57.152344 L 50.980469 -57.152344 L 50.980469 -53.9375 L 35.558594 -53.9375 L 35.558594 -57.152344 L 38.296875 -55.472656 L 27.417969 -37.722656 L 16.539062 -55.472656 L 19.277344 -57.152344 L 19.277344 -53.9375 L 3.855469 -53.9375 L 3.855469 -57.152344 L 6.992188 -56.453125 L 3.566406 -41.03125 L 0.429688 -41.726562 L 0.429688 -44.941406 Z M 7.070312 -44.941406 "/></g></g></g><g fill="#005130" fill-opacity="1"><g transform="translate(242.728194, 322.71338)"><g><path d="M 4.027344 -38.515625 L -3.40625 -38.515625 L 1.449219 -60.363281 L 22.664062 -60.363281 L 22.664062 3.214844 L 0.8125 3.214844 L 0.8125 -41.726562 L 4.027344 -41.726562 Z M 7.242188 -44.941406 L 7.242188 0 L 4.027344 0 L 4.027344 -3.214844 L 19.449219 -3.214844 L 19.449219 0 L 16.238281 0 L 16.238281 -57.152344 L 19.449219 -57.152344 L 19.449219 -53.9375 L 4.027344 -53.9375 L 4.027344 -57.152344 L 7.164062 -56.453125 L 3.738281 -41.03125 L 0.601562 -41.726562 L 0.601562 -44.941406 Z M 7.242188 -44.941406 "/></g></g></g><g fill="#005130" fill-opacity="1"><g transform="translate(267.062044, 322.71338)"><g><path d="M 3.855469 -38.515625 L -3.578125 -38.515625 L 1.277344 -60.363281 L 21.28125 -60.363281 L 32.789062 -36.886719 L 29.902344 -35.472656 L 26.691406 -35.472656 L 26.691406 -60.363281 L 48.539062 -60.363281 L 48.539062 3.214844 L 29.820312 3.214844 L 16.417969 -23.042969 L 19.277344 -24.503906 L 22.492188 -24.503906 L 22.492188 3.214844 L 0.640625 3.214844 L 0.640625 -41.726562 L 3.855469 -41.726562 Z M 7.070312 -44.941406 L 7.070312 0 L 3.855469 0 L 3.855469 -3.214844 L 19.277344 -3.214844 L 19.277344 0 L 16.066406 0 L 16.066406 -24.503906 L 22.140625 -25.964844 L 34.652344 -1.460938 L 31.789062 0 L 31.789062 -3.214844 L 45.328125 -3.214844 L 45.328125 0 L 42.113281 0 L 42.113281 -57.152344 L 45.328125 -57.152344 L 45.328125 -53.9375 L 29.902344 -53.9375 L 29.902344 -57.152344 L 33.117188 -57.152344 L 33.117188 -35.472656 L 27.019531 -34.058594 L 16.394531 -55.738281 L 19.277344 -57.152344 L 19.277344 -53.9375 L 3.855469 -53.9375 L 3.855469 -57.152344 L 6.992188 -56.453125 L 3.566406 -41.03125 L 0.429688 -41.726562 L 0.429688 -44.941406 Z M 7.070312 -44.941406 "/></g></g></g><g fill="#005130" fill-opacity="1"><g transform="translate(317.357698, 322.71338)"><g><path d="M 29.046875 -39.113281 L 52.800781 -39.113281 L 52.738281 -35.839844 C 52.679688 -32.84375 52.609375 -30.308594 52.523438 -28.226562 C 52.433594 -26.097656 52.296875 -24.222656 52.121094 -22.609375 C 51.933594 -20.933594 51.683594 -19.433594 51.367188 -18.105469 C 51.058594 -16.816406 50.691406 -15.523438 50.261719 -14.234375 C 49.277344 -11.484375 47.945312 -8.996094 46.265625 -6.761719 C 44.601562 -4.554688 42.707031 -2.644531 40.582031 -1.039062 C 38.425781 0.597656 36.074219 1.855469 33.523438 2.738281 C 30.957031 3.625 28.320312 4.070312 25.621094 4.070312 C 21.570312 4.070312 17.867188 3.230469 14.5 1.546875 C 11.175781 -0.117188 8.308594 -2.425781 5.902344 -5.382812 C 3.539062 -8.292969 1.707031 -11.753906 0.414062 -15.765625 C -0.863281 -19.710938 -1.5 -24.027344 -1.5 -28.703125 C -1.5 -33.265625 -0.878906 -37.492188 0.367188 -41.378906 C 1.621094 -45.300781 3.359375 -48.722656 5.582031 -51.640625 C 7.871094 -54.648438 10.609375 -56.988281 13.800781 -58.667969 C 17.039062 -60.371094 20.550781 -61.222656 24.335938 -61.222656 C 25.867188 -61.222656 27.292969 -61.085938 28.621094 -60.8125 C 29.890625 -60.550781 31.460938 -60.082031 33.324219 -59.398438 L 32.21875 -56.378906 L 29.675781 -58.34375 L 33.058594 -62.722656 L 48.578125 -51.210938 L 32.996094 -32.167969 L 30.550781 -35.570312 C 29.460938 -37.085938 28.542969 -38.09375 27.804688 -38.59375 C 27.292969 -38.941406 26.621094 -39.113281 25.789062 -39.113281 C 25.171875 -39.113281 24.644531 -38.980469 24.207031 -38.707031 C 23.707031 -38.398438 23.246094 -37.882812 22.832031 -37.164062 C 21.75 -35.289062 21.207031 -32.5 21.207031 -28.789062 C 21.207031 -24.71875 21.769531 -21.671875 22.898438 -19.640625 C 23.328125 -18.875 23.8125 -18.324219 24.359375 -17.988281 C 24.863281 -17.679688 25.484375 -17.523438 26.21875 -17.523438 C 27.339844 -17.523438 28.222656 -17.902344 28.867188 -18.660156 C 29.722656 -19.667969 30.261719 -21.214844 30.476562 -23.296875 L 33.675781 -22.964844 L 33.675781 -19.75 L 22.226562 -19.75 L 26.460938 -39.113281 Z M 29.046875 -32.6875 L 29.046875 -35.902344 L 32.1875 -35.214844 L 29.359375 -22.277344 L 26.21875 -22.964844 L 26.21875 -26.175781 L 37.238281 -26.175781 L 36.871094 -22.628906 C 36.515625 -19.230469 35.480469 -16.519531 33.765625 -14.5 C 31.839844 -12.230469 29.324219 -11.097656 26.21875 -11.097656 C 24.269531 -11.097656 22.527344 -11.570312 20.988281 -12.515625 C 19.492188 -13.4375 18.257812 -14.769531 17.285156 -16.515625 C 15.617188 -19.515625 14.78125 -23.605469 14.78125 -28.789062 C 14.78125 -33.648438 15.609375 -37.511719 17.269531 -40.378906 C 18.222656 -42.03125 19.40625 -43.292969 20.820312 -44.171875 C 22.296875 -45.085938 23.953125 -45.542969 25.789062 -45.542969 C 27.933594 -45.542969 29.800781 -45 31.402344 -43.917969 C 32.777344 -42.992188 34.230469 -41.457031 35.769531 -39.320312 L 33.160156 -37.445312 L 30.671875 -39.480469 L 41.46875 -52.675781 L 43.957031 -50.640625 L 42.042969 -48.058594 L 31.757812 -55.683594 L 33.675781 -58.265625 L 36.214844 -56.300781 L 33.320312 -52.554688 L 31.109375 -53.363281 C 29.546875 -53.9375 28.289062 -54.320312 27.332031 -54.519531 C 26.429688 -54.703125 25.429688 -54.792969 24.335938 -54.792969 C 21.605469 -54.792969 19.09375 -54.191406 16.789062 -52.980469 C 14.441406 -51.742188 12.410156 -50 10.695312 -47.75 C 8.921875 -45.417969 7.519531 -42.640625 6.488281 -39.421875 C 5.445312 -36.167969 4.925781 -32.597656 4.925781 -28.703125 C 4.925781 -24.699219 5.460938 -21.042969 6.527344 -17.738281 C 7.574219 -14.492188 9.03125 -11.726562 10.890625 -9.4375 C 12.710938 -7.199219 14.875 -5.453125 17.375 -4.203125 C 19.835938 -2.972656 22.582031 -2.355469 25.621094 -2.355469 C 27.601562 -2.355469 29.535156 -2.683594 31.421875 -3.335938 C 33.328125 -3.996094 35.089844 -4.9375 36.703125 -6.160156 C 38.351562 -7.40625 39.828125 -8.898438 41.132812 -10.628906 C 42.421875 -12.339844 43.429688 -14.21875 44.164062 -16.269531 C 44.535156 -17.378906 44.851562 -18.488281 45.113281 -19.59375 C 45.371094 -20.664062 45.574219 -21.90625 45.730469 -23.316406 C 45.894531 -24.785156 46.019531 -26.511719 46.101562 -28.496094 C 46.183594 -30.527344 46.257812 -33.015625 46.3125 -35.964844 L 49.527344 -35.902344 L 49.527344 -32.6875 Z M 29.046875 -32.6875 "/></g></g></g><g fill="#ffffff" fill-opacity="1"><g transform="translate(3.245522, 322.71338)"><g><path d="M 6 -19.015625 C 8.113281 -17.535156 10.335938 -16.378906 12.671875 -15.546875 C 15.015625 -14.722656 17.1875 -14.3125 19.1875 -14.3125 C 20.332031 -14.3125 21.273438 -14.597656 22.015625 -15.171875 C 22.765625 -15.742188 23.140625 -16.515625 23.140625 -17.484375 C 23.140625 -17.992188 23.050781 -18.460938 22.875 -18.890625 C 22.707031 -19.316406 22.363281 -19.757812 21.84375 -20.21875 C 21.332031 -20.675781 20.632812 -21.160156 19.75 -21.671875 C 18.863281 -22.191406 17.707031 -22.796875 16.28125 -23.484375 C 13.59375 -24.734375 11.519531 -25.816406 10.0625 -26.734375 C 8.613281 -27.648438 7.34375 -28.617188 6.25 -29.640625 C 4.769531 -30.960938 3.644531 -32.617188 2.875 -34.609375 C 2.101562 -36.609375 1.71875 -38.753906 1.71875 -41.046875 C 1.71875 -43.503906 2.113281 -45.757812 2.90625 -47.8125 C 3.707031 -49.863281 4.835938 -51.644531 6.296875 -53.15625 C 7.753906 -54.675781 9.453125 -55.863281 11.390625 -56.71875 C 13.335938 -57.582031 15.484375 -58.015625 17.828125 -58.015625 C 19.023438 -58.015625 20.148438 -57.941406 21.203125 -57.796875 C 22.265625 -57.648438 23.648438 -57.378906 25.359375 -56.984375 L 25.96875 -59.46875 L 38.296875 -56.46875 L 34.453125 -40.78125 C 32.847656 -42.101562 31.070312 -43.117188 29.125 -43.828125 C 27.1875 -44.546875 25.304688 -44.90625 23.484375 -44.90625 C 22.054688 -44.90625 20.898438 -44.628906 20.015625 -44.078125 C 19.128906 -43.535156 18.6875 -42.8125 18.6875 -41.90625 C 18.6875 -41.445312 18.785156 -41.015625 18.984375 -40.609375 C 19.179688 -40.210938 19.566406 -39.785156 20.140625 -39.328125 C 20.710938 -38.867188 21.484375 -38.351562 22.453125 -37.78125 C 23.421875 -37.21875 24.648438 -36.5625 26.140625 -35.8125 C 27.566406 -35.070312 28.78125 -34.429688 29.78125 -33.890625 C 30.78125 -33.347656 31.632812 -32.832031 32.34375 -32.34375 C 33.0625 -31.863281 33.675781 -31.394531 34.1875 -30.9375 C 34.695312 -30.476562 35.179688 -29.960938 35.640625 -29.390625 C 38.160156 -26.359375 39.421875 -22.617188 39.421875 -18.171875 C 39.421875 -15.367188 38.945312 -12.796875 38 -10.453125 C 37.0625 -8.109375 35.765625 -6.109375 34.109375 -4.453125 C 32.453125 -2.796875 30.460938 -1.492188 28.140625 -0.546875 C 25.828125 0.390625 23.273438 0.859375 20.484375 0.859375 C 17.398438 0.859375 14.398438 0.429688 11.484375 -0.421875 C 8.566406 -1.285156 5.539062 -2.628906 2.40625 -4.453125 Z M 6 -19.015625 "/></g></g></g><g fill="#ffffff" fill-opacity="1"><g transform="translate(45.315651, 322.71338)"><g><path d="M -0.421875 -57.15625 L 16.03125 -57.15625 L 19.28125 -31.796875 L 24 -57.15625 L 36.84375 -57.15625 L 41.640625 -31.796875 L 44.90625 -57.15625 L 61.265625 -57.15625 L 50.390625 0 L 34.875 0 L 30.421875 -25.625 L 25.796875 0 L 10.453125 0 Z M -0.421875 -57.15625 "/></g></g></g><g fill="#ffffff" fill-opacity="1"><g transform="translate(107.007063, 322.71338)"><g><path d="M 4.03125 -41.734375 L 0.59375 -41.734375 L 4.03125 -57.15625 L 19.453125 -57.15625 L 19.453125 0 L 4.03125 0 Z M 4.03125 -41.734375 "/></g></g></g><g fill="#ffffff" fill-opacity="1"><g transform="translate(131.340912, 322.71338)"><g><path d="M 3.859375 -41.734375 L 0.421875 -41.734375 L 3.859375 -57.15625 L 19.28125 -57.15625 L 27.421875 -43.875 L 35.5625 -57.15625 L 50.984375 -57.15625 L 50.984375 0 L 35.5625 0 L 35.5625 -32.046875 L 27.421875 -18.9375 L 19.28125 -32.046875 L 19.28125 0 L 3.859375 0 Z M 3.859375 -41.734375 "/></g></g></g><g fill="#ffffff" fill-opacity="1"><g transform="translate(187.034553, 322.71338)"><g><path d="M 3.859375 -41.734375 L 0.421875 -41.734375 L 3.859375 -57.15625 L 19.28125 -57.15625 L 27.421875 -43.875 L 35.5625 -57.15625 L 50.984375 -57.15625 L 50.984375 0 L 35.5625 0 L 35.5625 -32.046875 L 27.421875 -18.9375 L 19.28125 -32.046875 L 19.28125 0 L 3.859375 0 Z M 3.859375 -41.734375 "/></g></g></g><g fill="#ffffff" fill-opacity="1"><g transform="translate(242.728194, 322.71338)"><g><path d="M 4.03125 -41.734375 L 0.59375 -41.734375 L 4.03125 -57.15625 L 19.453125 -57.15625 L 19.453125 0 L 4.03125 0 Z M 4.03125 -41.734375 "/></g></g></g><g fill="#ffffff" fill-opacity="1"><g transform="translate(267.062044, 322.71338)"><g><path d="M 3.859375 -41.734375 L 0.421875 -41.734375 L 3.859375 -57.15625 L 19.28125 -57.15625 L 29.90625 -35.46875 L 29.90625 -57.15625 L 45.328125 -57.15625 L 45.328125 0 L 31.796875 0 L 19.28125 -24.5 L 19.28125 0 L 3.859375 0 Z M 3.859375 -41.734375 "/></g></g></g><g fill="#ffffff" fill-opacity="1"><g transform="translate(317.357698, 322.71338)"><g><path d="M 29.046875 -35.90625 L 49.53125 -35.90625 C 49.46875 -32.9375 49.394531 -30.421875 49.3125 -28.359375 C 49.226562 -26.304688 49.097656 -24.507812 48.921875 -22.96875 C 48.753906 -21.425781 48.523438 -20.050781 48.234375 -18.84375 C 47.953125 -17.644531 47.613281 -16.445312 47.21875 -15.25 C 46.351562 -12.851562 45.175781 -10.664062 43.6875 -8.6875 C 42.207031 -6.71875 40.523438 -5.019531 38.640625 -3.59375 C 36.753906 -2.164062 34.695312 -1.066406 32.46875 -0.296875 C 30.25 0.472656 27.96875 0.859375 25.625 0.859375 C 22.082031 0.859375 18.851562 0.128906 15.9375 -1.328125 C 13.019531 -2.785156 10.503906 -4.8125 8.390625 -7.40625 C 6.285156 -10.007812 4.644531 -13.125 3.46875 -16.75 C 2.300781 -20.375 1.71875 -24.359375 1.71875 -28.703125 C 1.71875 -32.929688 2.285156 -36.828125 3.421875 -40.390625 C 4.566406 -43.960938 6.140625 -47.0625 8.140625 -49.6875 C 10.140625 -52.320312 12.523438 -54.367188 15.296875 -55.828125 C 18.066406 -57.285156 21.078125 -58.015625 24.328125 -58.015625 C 25.648438 -58.015625 26.863281 -57.898438 27.96875 -57.671875 C 29.082031 -57.441406 30.5 -57.007812 32.21875 -56.375 L 33.671875 -58.265625 L 43.953125 -50.640625 L 33.15625 -37.453125 C 31.84375 -39.273438 30.65625 -40.539062 29.59375 -41.25 C 28.539062 -41.96875 27.273438 -42.328125 25.796875 -42.328125 C 23.335938 -42.328125 21.421875 -41.140625 20.046875 -38.765625 C 18.679688 -36.398438 18 -33.078125 18 -28.796875 C 18 -24.160156 18.695312 -20.585938 20.09375 -18.078125 C 21.488281 -15.566406 23.53125 -14.3125 26.21875 -14.3125 C 28.332031 -14.3125 30.03125 -15.066406 31.3125 -16.578125 C 32.601562 -18.085938 33.390625 -20.21875 33.671875 -22.96875 L 26.21875 -22.96875 Z M 29.046875 -35.90625 "/></g></g></g></g></g></svg>