<svg xmlns="http://www.w3.org/2000/svg" xmlns:xlink="http://www.w3.org/1999/xlink" width="500" zoomAndPan="magnify" viewBox="0 0 375 225" height="300" preserveAspectRatio="xMidYMid meet" version="1.0"><defs><g/></defs><g fill="#000000" fill-opacity="1"><g transform="translate(5.583341, 151.299679)"><g><path d="M 6.613281 -66.996094 L -4.992188 -66.996094 L 2.929688 -102.644531 L 35.648438 -102.644531 L 50.957031 -77.664062 L 47.039062 -75.265625 L 43.125 -77.664062 L 58.433594 -102.644531 L 92.058594 -102.644531 L 92.058594 4.59375 L 56.410156 4.59375 L 56.410156 -54.976562 L 61.003906 -54.976562 L 64.90625 -52.554688 L 47.039062 -23.777344 L 29.171875 -52.554688 L 33.074219 -54.976562 L 37.667969 -54.976562 L 37.667969 4.59375 L 2.019531 4.59375 L 2.019531 -71.589844 L 6.613281 -71.589844 Z M 11.207031 -76.183594 L 11.207031 0 L 6.613281 0 L 6.613281 -4.59375 L 33.074219 -4.59375 L 33.074219 0 L 28.480469 0 L 28.480469 -71.085938 L 50.941406 -34.910156 L 47.039062 -32.488281 L 43.136719 -34.910156 L 65.597656 -71.085938 L 65.597656 0 L 61.003906 0 L 61.003906 -4.59375 L 87.464844 -4.59375 L 87.464844 0 L 82.871094 0 L 82.871094 -98.050781 L 87.464844 -98.050781 L 87.464844 -93.453125 L 61.003906 -93.453125 L 61.003906 -98.050781 L 64.921875 -95.648438 L 47.039062 -66.472656 L 29.160156 -95.648438 L 33.074219 -98.050781 L 33.074219 -93.453125 L 6.613281 -93.453125 L 6.613281 -98.050781 L 11.097656 -97.050781 L 5.21875 -70.59375 L 0.734375 -71.589844 L 0.734375 -76.183594 Z M 11.207031 -76.183594 "/></g></g></g><g fill="#000000" fill-opacity="1"><g transform="translate(102.603497, 151.299679)"><g><path d="M -0.734375 -102.644531 L 31.53125 -102.644531 L 37.632812 -55.121094 L 33.074219 -54.535156 L 28.558594 -55.375 L 37.339844 -102.644531 L 67.015625 -102.644531 L 75.957031 -55.390625 L 71.441406 -54.535156 L 66.886719 -55.121094 L 72.984375 -102.644531 L 110.65625 -102.644531 L 90.238281 4.59375 L 55.964844 4.59375 L 47.660156 -43.164062 L 52.183594 -43.953125 L 56.707031 -43.136719 L 48.085938 4.59375 L 14.132812 4.59375 L -6.285156 -102.644531 Z M -0.734375 -93.453125 L -0.734375 -98.050781 L 3.777344 -98.910156 L 22.445312 -0.859375 L 17.933594 0 L 17.933594 -4.59375 L 44.246094 -4.59375 L 44.246094 0 L 39.726562 -0.816406 L 47.664062 -44.769531 L 56.710938 -44.738281 L 64.355469 -0.789062 L 59.828125 0 L 59.828125 -4.59375 L 86.4375 -4.59375 L 86.4375 0 L 81.921875 -0.859375 L 100.59375 -98.910156 L 105.105469 -98.050781 L 105.105469 -93.453125 L 77.027344 -93.453125 L 77.027344 -98.050781 L 81.585938 -97.464844 L 76 -53.953125 L 66.929688 -53.683594 L 58.695312 -97.195312 L 63.210938 -98.050781 L 63.210938 -93.453125 L 41.160156 -93.453125 L 41.160156 -98.050781 L 45.675781 -97.210938 L 37.589844 -53.699219 L 28.519531 -53.953125 L 22.933594 -97.464844 L 27.488281 -98.050781 L 27.488281 -93.453125 Z M -0.734375 -93.453125 "/></g></g></g><g fill="#000000" fill-opacity="1"><g transform="translate(209.913654, 151.299679)"><g><path d="M 49.832031 -66.1875 L 89.648438 -66.1875 L 89.558594 -61.503906 C 89.460938 -56.375 89.335938 -52.027344 89.1875 -48.464844 C 89.035156 -44.832031 88.808594 -41.640625 88.503906 -38.890625 C 88.1875 -36.054688 87.765625 -33.515625 87.230469 -31.277344 C 86.707031 -29.085938 86.082031 -26.898438 85.355469 -24.714844 C 83.707031 -20.09375 81.46875 -15.910156 78.640625 -12.15625 C 75.835938 -8.433594 72.644531 -5.21875 69.070312 -2.511719 C 65.449219 0.230469 61.496094 2.34375 57.214844 3.828125 C 52.90625 5.316406 48.484375 6.0625 43.953125 6.0625 C 37.152344 6.0625 30.933594 4.652344 25.289062 1.832031 C 19.699219 -0.964844 14.882812 -4.847656 10.839844 -9.816406 C 6.855469 -14.722656 3.765625 -20.558594 1.582031 -27.328125 C -0.574219 -34.007812 -1.652344 -41.316406 -1.652344 -49.246094 C -1.652344 -56.976562 -0.601562 -64.128906 1.503906 -70.710938 C 3.625 -77.335938 6.558594 -83.113281 10.308594 -88.042969 C 14.148438 -93.089844 18.746094 -97.023438 24.101562 -99.835938 C 29.523438 -102.6875 35.40625 -104.113281 41.746094 -104.113281 C 44.3125 -104.113281 46.703125 -103.886719 48.917969 -103.429688 C 51.054688 -102.992188 53.699219 -102.195312 56.851562 -101.039062 L 55.273438 -96.726562 L 51.636719 -99.535156 L 56.890625 -106.332031 L 82.015625 -87.695312 L 56.652344 -56.695312 L 53.160156 -61.558594 C 51.222656 -64.25 49.578125 -66.054688 48.214844 -66.972656 C 47.179688 -67.675781 45.855469 -68.023438 44.246094 -68.023438 C 43.011719 -68.023438 41.945312 -67.746094 41.042969 -67.1875 C 40.054688 -66.574219 39.164062 -65.585938 38.375 -64.21875 C 36.433594 -60.863281 35.464844 -55.921875 35.464844 -49.390625 C 35.464844 -42.25 36.472656 -36.871094 38.484375 -33.25 C 39.296875 -31.796875 40.238281 -30.738281 41.308594 -30.078125 C 42.320312 -29.453125 43.546875 -29.144531 44.980469 -29.144531 C 47.191406 -29.144531 48.9375 -29.902344 50.226562 -31.417969 C 51.816406 -33.292969 52.808594 -36.109375 53.203125 -39.871094 L 57.769531 -39.394531 L 57.769531 -34.800781 L 39.277344 -34.800781 L 46.132812 -66.1875 Z M 49.832031 -57 L 49.832031 -61.59375 L 54.320312 -60.613281 L 49.46875 -38.414062 L 44.980469 -39.394531 L 44.980469 -43.988281 L 62.867188 -43.988281 L 62.339844 -38.921875 C 61.753906 -33.273438 60.046875 -28.789062 57.230469 -25.472656 C 54.109375 -21.792969 50.023438 -19.953125 44.980469 -19.953125 C 41.8125 -19.953125 38.980469 -20.722656 36.492188 -22.253906 C 34.058594 -23.75 32.046875 -25.925781 30.457031 -28.78125 C 27.671875 -33.789062 26.277344 -40.660156 26.277344 -49.390625 C 26.277344 -57.5625 27.65625 -64.039062 30.421875 -68.816406 C 31.980469 -71.515625 33.910156 -73.578125 36.207031 -75 C 38.585938 -76.472656 41.269531 -77.210938 44.246094 -77.210938 C 47.734375 -77.210938 50.769531 -76.335938 53.359375 -74.585938 C 55.625 -73.054688 58.046875 -70.5 60.621094 -66.921875 L 56.890625 -64.238281 L 53.332031 -67.148438 L 71.855469 -89.785156 L 75.410156 -86.878906 L 72.675781 -83.1875 L 55.035156 -96.269531 L 57.769531 -99.960938 L 61.40625 -97.152344 L 56.851562 -91.253906 L 53.691406 -92.414062 C 50.964844 -93.410156 48.757812 -94.085938 47.074219 -94.429688 C 45.464844 -94.761719 43.691406 -94.925781 41.746094 -94.925781 C 36.917969 -94.925781 32.460938 -93.851562 28.378906 -91.703125 C 24.226562 -89.519531 20.640625 -86.445312 17.621094 -82.476562 C 14.511719 -78.390625 12.054688 -73.535156 10.253906 -67.910156 C 8.441406 -62.242188 7.535156 -56.019531 7.535156 -49.246094 C 7.535156 -42.277344 8.464844 -35.914062 10.324219 -30.148438 C 12.15625 -24.472656 14.707031 -19.628906 17.96875 -15.613281 C 21.179688 -11.667969 24.988281 -8.589844 29.394531 -6.386719 C 33.746094 -4.210938 38.601562 -3.125 43.953125 -3.125 C 47.457031 -3.125 50.875 -3.703125 54.210938 -4.855469 C 57.574219 -6.019531 60.675781 -7.679688 63.523438 -9.835938 C 66.417969 -12.027344 69.011719 -14.644531 71.300781 -17.683594 C 73.566406 -20.691406 75.347656 -24.003906 76.640625 -27.617188 C 77.28125 -29.546875 77.832031 -31.476562 78.292969 -33.402344 C 78.738281 -35.277344 79.097656 -37.445312 79.371094 -39.902344 C 79.652344 -42.445312 79.867188 -45.425781 80.007812 -48.847656 C 80.152344 -52.34375 80.277344 -56.621094 80.371094 -61.679688 L 84.964844 -61.59375 L 84.964844 -57 Z M 49.832031 -57 "/></g></g></g><g fill="#000000" fill-opacity="1"><g transform="translate(299.28981, 151.299679)"><g><path d="M 12.929688 -36.394531 C 16.214844 -34.085938 19.664062 -32.292969 23.289062 -31.011719 C 26.808594 -29.765625 30.023438 -29.144531 32.929688 -29.144531 C 33.847656 -29.144531 34.53125 -29.316406 34.976562 -29.660156 C 35.058594 -29.722656 35.097656 -29.828125 35.097656 -29.988281 C 35.097656 -30.28125 35.058594 -30.519531 34.984375 -30.707031 L 34.953125 -30.722656 C 34.835938 -30.875 34.660156 -31.054688 34.433594 -31.257812 C 33.78125 -31.835938 32.828125 -32.492188 31.578125 -33.21875 C 30.160156 -34.039062 28.285156 -35.011719 25.941406 -36.136719 C 21.191406 -38.359375 17.488281 -40.304688 14.832031 -41.972656 C 12.074219 -43.703125 9.65625 -45.554688 7.570312 -47.527344 L 10.730469 -50.863281 L 7.6875 -47.421875 C 4.578125 -50.171875 2.230469 -53.609375 0.636719 -57.734375 C -0.890625 -61.695312 -1.652344 -65.921875 -1.652344 -70.414062 C -1.652344 -75.203125 -0.863281 -79.628906 0.714844 -83.691406 C 2.3125 -87.789062 4.570312 -91.359375 7.496094 -94.398438 C 10.410156 -97.429688 13.8125 -99.804688 17.695312 -101.515625 C 21.621094 -103.246094 25.914062 -104.113281 30.574219 -104.113281 C 32.839844 -104.113281 34.980469 -103.976562 36.996094 -103.703125 C 38.953125 -103.441406 41.472656 -102.949219 44.554688 -102.230469 L 43.511719 -97.753906 L 39.046875 -98.832031 L 41.15625 -107.570312 L 71.269531 -100.25 L 61.8125 -61.792969 L 56.179688 -66.421875 C 53.835938 -68.347656 51.238281 -69.832031 48.394531 -70.878906 C 45.574219 -71.914062 42.867188 -72.433594 40.277344 -72.433594 C 38.691406 -72.433594 37.507812 -72.195312 36.726562 -71.714844 C 36.625 -71.652344 36.550781 -71.601562 36.503906 -71.554688 C 36.507812 -71.558594 36.523438 -71.578125 36.542969 -71.609375 C 36.605469 -71.71875 36.640625 -71.808594 36.640625 -71.882812 C 36.640625 -71.820312 36.648438 -71.773438 36.667969 -71.734375 C 36.652344 -71.769531 36.636719 -71.792969 36.628906 -71.804688 C 36.648438 -71.777344 36.683594 -71.734375 36.730469 -71.683594 C 36.890625 -71.503906 37.121094 -71.296875 37.414062 -71.058594 C 38.222656 -70.414062 39.367188 -69.65625 40.84375 -68.785156 C 42.417969 -67.859375 44.433594 -66.78125 46.890625 -65.554688 C 49.40625 -64.246094 51.535156 -63.121094 53.273438 -62.175781 C 55.125 -61.171875 56.722656 -60.210938 58.074219 -59.292969 C 59.464844 -58.347656 60.675781 -57.417969 61.703125 -56.5 C 62.78125 -55.542969 63.792969 -54.472656 64.738281 -53.289062 C 69.722656 -47.289062 72.214844 -39.914062 72.214844 -31.164062 C 72.214844 -25.769531 71.292969 -20.789062 69.457031 -16.21875 C 67.605469 -11.621094 65.039062 -7.679688 61.753906 -4.394531 C 58.476562 -1.117188 54.566406 1.449219 50.023438 3.300781 C 45.5 5.140625 40.535156 6.0625 35.132812 6.0625 C 29.398438 6.0625 23.824219 5.265625 18.402344 3.671875 C 13.046875 2.097656 7.515625 -0.351562 1.804688 -3.671875 L -1.167969 -5.402344 L 7.441406 -40.25 Z M 7.648438 -28.875 L 10.289062 -32.632812 L 14.75 -31.53125 L 8.574219 -6.542969 L 4.117188 -7.644531 L 6.425781 -11.613281 C 11.496094 -8.664062 16.351562 -6.507812 20.996094 -5.140625 C 25.570312 -3.796875 30.28125 -3.125 35.132812 -3.125 C 39.335938 -3.125 43.144531 -3.820312 46.554688 -5.210938 C 49.953125 -6.59375 52.851562 -8.488281 55.257812 -10.890625 C 57.65625 -13.292969 59.550781 -16.210938 60.933594 -19.648438 C 62.328125 -23.117188 63.027344 -26.957031 63.027344 -31.164062 C 63.027344 -37.703125 61.207031 -43.164062 57.566406 -47.550781 C 56.941406 -48.328125 56.289062 -49.023438 55.601562 -49.632812 C 54.867188 -50.285156 53.96875 -50.972656 52.910156 -51.695312 C 51.8125 -52.441406 50.472656 -53.242188 48.890625 -54.101562 C 47.199219 -55.019531 45.164062 -56.097656 42.78125 -57.335938 C 40.140625 -58.65625 37.941406 -59.835938 36.183594 -60.867188 C 34.328125 -61.957031 32.828125 -62.964844 31.675781 -63.886719 C 30.171875 -65.089844 29.09375 -66.335938 28.453125 -67.625 C 27.785156 -68.957031 27.453125 -70.375 27.453125 -71.882812 C 27.453125 -73.523438 27.863281 -75.023438 28.691406 -76.382812 C 29.453125 -77.640625 30.53125 -78.695312 31.925781 -79.546875 C 34.179688 -80.929688 36.964844 -81.621094 40.277344 -81.621094 C 43.960938 -81.621094 47.722656 -80.914062 51.566406 -79.503906 C 55.382812 -78.097656 58.867188 -76.105469 62.011719 -73.523438 L 59.09375 -69.972656 L 54.632812 -71.070312 L 61.246094 -97.96875 L 65.710938 -96.871094 L 64.625 -92.410156 L 43.457031 -97.554688 L 44.539062 -102.019531 L 49.007812 -100.941406 L 46.90625 -92.246094 L 42.46875 -93.28125 C 39.667969 -93.933594 37.4375 -94.375 35.765625 -94.597656 C 34.160156 -94.816406 32.429688 -94.925781 30.574219 -94.925781 C 27.203125 -94.925781 24.148438 -94.320312 21.40625 -93.109375 C 18.625 -91.882812 16.195312 -90.191406 14.113281 -88.027344 C 12.039062 -85.875 10.429688 -83.316406 9.28125 -80.359375 C 8.117188 -77.367188 7.535156 -74.050781 7.535156 -70.414062 C 7.535156 -67.0625 8.09375 -63.9375 9.210938 -61.042969 C 10.265625 -58.308594 11.785156 -56.0625 13.773438 -54.304688 L 13.890625 -54.195312 C 15.53125 -52.640625 17.472656 -51.160156 19.714844 -49.753906 C 22.054688 -48.289062 25.457031 -46.507812 29.917969 -44.417969 C 32.476562 -43.191406 34.566406 -42.105469 36.191406 -41.164062 C 37.976562 -40.128906 39.425781 -39.113281 40.535156 -38.125 C 41.960938 -36.859375 42.953125 -35.527344 43.515625 -34.121094 C 44.027344 -32.835938 44.285156 -31.460938 44.285156 -29.988281 C 44.285156 -26.8125 43.050781 -24.277344 40.578125 -22.378906 C 38.480469 -20.761719 35.929688 -19.953125 32.929688 -19.953125 C 28.972656 -19.953125 24.738281 -20.753906 20.222656 -22.347656 C 15.808594 -23.910156 11.617188 -26.085938 7.648438 -28.875 Z M 7.648438 -28.875 "/></g></g></g><g fill="#064c27" fill-opacity="1"><g transform="translate(5.583341, 151.299679)"><g><path d="M 6.609375 -71.59375 L 0.734375 -71.59375 L 6.609375 -98.046875 L 33.078125 -98.046875 L 47.046875 -75.265625 L 61 -98.046875 L 87.46875 -98.046875 L 87.46875 0 L 61 0 L 61 -54.984375 L 47.046875 -32.484375 L 33.078125 -54.984375 L 33.078125 0 L 6.609375 0 Z M 6.609375 -71.59375 "/></g></g></g><g fill="#064c27" fill-opacity="1"><g transform="translate(102.603497, 151.299679)"><g><path d="M -0.734375 -98.046875 L 27.484375 -98.046875 L 33.078125 -54.53125 L 41.15625 -98.046875 L 63.203125 -98.046875 L 71.4375 -54.53125 L 77.03125 -98.046875 L 105.109375 -98.046875 L 86.4375 0 L 59.828125 0 L 52.1875 -43.953125 L 44.25 0 L 17.9375 0 Z M -0.734375 -98.046875 "/></g></g></g><g fill="#064c27" fill-opacity="1"><g transform="translate(209.913654, 151.299679)"><g><path d="M 49.828125 -61.59375 L 84.96875 -61.59375 C 84.863281 -56.5 84.738281 -52.1875 84.59375 -48.65625 C 84.445312 -45.125 84.226562 -42.035156 83.9375 -39.390625 C 83.644531 -36.742188 83.253906 -34.390625 82.765625 -32.328125 C 82.273438 -30.273438 81.6875 -28.222656 81 -26.171875 C 79.53125 -22.046875 77.519531 -18.289062 74.96875 -14.90625 C 72.414062 -11.53125 69.523438 -8.617188 66.296875 -6.171875 C 63.066406 -3.722656 59.539062 -1.835938 55.71875 -0.515625 C 51.894531 0.804688 47.972656 1.46875 43.953125 1.46875 C 37.878906 1.46875 32.34375 0.21875 27.34375 -2.28125 C 22.34375 -4.78125 18.03125 -8.257812 14.40625 -12.71875 C 10.78125 -17.175781 7.960938 -22.515625 5.953125 -28.734375 C 3.941406 -34.960938 2.9375 -41.800781 2.9375 -49.25 C 2.9375 -56.5 3.914062 -63.1875 5.875 -69.3125 C 7.832031 -75.4375 10.523438 -80.75 13.953125 -85.25 C 17.390625 -89.757812 21.484375 -93.265625 26.234375 -95.765625 C 30.992188 -98.265625 36.164062 -99.515625 41.75 -99.515625 C 44 -99.515625 46.078125 -99.316406 47.984375 -98.921875 C 49.898438 -98.535156 52.328125 -97.800781 55.265625 -96.71875 L 57.765625 -99.953125 L 75.40625 -86.875 L 56.890625 -64.234375 C 54.640625 -67.367188 52.601562 -69.550781 50.78125 -70.78125 C 48.96875 -72.007812 46.789062 -72.625 44.25 -72.625 C 40.03125 -72.625 36.742188 -70.585938 34.390625 -66.515625 C 32.046875 -62.453125 30.875 -56.742188 30.875 -49.390625 C 30.875 -41.453125 32.070312 -35.328125 34.46875 -31.015625 C 36.875 -26.703125 40.378906 -24.546875 44.984375 -24.546875 C 48.609375 -24.546875 51.519531 -25.84375 53.71875 -28.4375 C 55.925781 -31.039062 57.273438 -34.691406 57.765625 -39.390625 L 44.984375 -39.390625 Z M 49.828125 -61.59375 "/></g></g></g><g fill="#064c27" fill-opacity="1"><g transform="translate(299.28981, 151.299679)"><g><path d="M 10.296875 -32.640625 C 13.921875 -30.085938 17.738281 -28.097656 21.75 -26.671875 C 25.769531 -25.253906 29.492188 -24.546875 32.921875 -24.546875 C 34.890625 -24.546875 36.507812 -25.035156 37.78125 -26.015625 C 39.050781 -26.992188 39.6875 -28.316406 39.6875 -29.984375 C 39.6875 -30.867188 39.539062 -31.675781 39.25 -32.40625 C 38.957031 -33.144531 38.367188 -33.90625 37.484375 -34.6875 C 36.597656 -35.476562 35.394531 -36.3125 33.875 -37.1875 C 32.363281 -38.070312 30.382812 -39.101562 27.9375 -40.28125 C 23.320312 -42.4375 19.765625 -44.296875 17.265625 -45.859375 C 14.773438 -47.429688 12.597656 -49.097656 10.734375 -50.859375 C 8.179688 -53.117188 6.242188 -55.960938 4.921875 -59.390625 C 3.597656 -62.816406 2.9375 -66.488281 2.9375 -70.40625 C 2.9375 -74.625 3.625 -78.492188 5 -82.015625 C 6.375 -85.546875 8.304688 -88.609375 10.796875 -91.203125 C 13.296875 -93.804688 16.210938 -95.84375 19.546875 -97.3125 C 22.878906 -98.78125 26.554688 -99.515625 30.578125 -99.515625 C 32.628906 -99.515625 34.5625 -99.390625 36.375 -99.140625 C 38.195312 -98.898438 40.578125 -98.4375 43.515625 -97.75 L 44.546875 -102.015625 L 65.703125 -96.875 L 59.09375 -69.96875 C 56.351562 -72.226562 53.316406 -73.96875 49.984375 -75.1875 C 46.648438 -76.414062 43.414062 -77.03125 40.28125 -77.03125 C 37.832031 -77.03125 35.847656 -76.5625 34.328125 -75.625 C 32.804688 -74.695312 32.046875 -73.453125 32.046875 -71.890625 C 32.046875 -71.097656 32.21875 -70.359375 32.5625 -69.671875 C 32.90625 -68.992188 33.566406 -68.257812 34.546875 -67.46875 C 35.523438 -66.6875 36.847656 -65.804688 38.515625 -64.828125 C 40.179688 -63.847656 42.285156 -62.722656 44.828125 -61.453125 C 47.285156 -60.171875 49.367188 -59.0625 51.078125 -58.125 C 52.796875 -57.195312 54.265625 -56.316406 55.484375 -55.484375 C 56.710938 -54.660156 57.765625 -53.851562 58.640625 -53.0625 C 59.523438 -52.28125 60.363281 -51.398438 61.15625 -50.421875 C 65.46875 -45.222656 67.625 -38.800781 67.625 -31.15625 C 67.625 -26.363281 66.8125 -21.957031 65.1875 -17.9375 C 63.570312 -13.914062 61.34375 -10.484375 58.5 -7.640625 C 55.664062 -4.796875 52.265625 -2.566406 48.296875 -0.953125 C 44.328125 0.660156 39.941406 1.46875 35.140625 1.46875 C 29.835938 1.46875 24.6875 0.734375 19.6875 -0.734375 C 14.695312 -2.203125 9.503906 -4.503906 4.109375 -7.640625 Z M 10.296875 -32.640625 "/></g></g></g></svg>